<svg width="591" height="272" viewBox="0 0 591 272" fill="none" xmlns="http://www.w3.org/2000/svg">
<path d="M176.56 75.54V19.54C176.56 10.78 178.14 8.1 182.4 8.1C186.05 8.1 188.48 11.27 188.48 16.87C188.48 18.57 188.36 19.54 188.85 19.54C189.34 19.54 189.21 18.93 189.46 18.32C190.31 16.13 192.99 8.1 200.29 8.1C200.996 8.04954 201.705 8.14961 202.37 8.39358C203.034 8.63755 203.639 9.01986 204.145 9.51522C204.651 10.0106 205.046 10.6077 205.303 11.2671C205.561 11.9264 205.676 12.633 205.64 13.34C205.64 16.5 204.42 20.03 201.14 20.03C194.57 20.03 189.58 33.41 189.58 43.51V76.61C189.58 81.48 185.58 83.3 182.03 83.3C178 83.32 176.56 80.4 176.56 75.54ZM180 10.07C179.27 10.07 178.17 12.26 178.17 13.96C178.17 15.66 178.66 16.52 179.02 16.52C179.75 16.52 179.75 13.84 179.87 13.23C180.09 12 181.18 10.07 180 10.07ZM178.78 73.47C178.41 73.47 178.17 74.32 178.17 75.54C178.17 78.46 179.17 81.13 180.24 81.13C180.6 81.13 181.09 81.13 181.09 80.28C181.09 79.79 180.24 78.82 179.87 77.28C179.36 75.29 179.24 73.47 178.75 73.47H178.78Z" fill="black"/>
<path d="M203.93 47.06C203.93 29.17 208.93 7.51001 226.08 7.51001C243.23 7.51001 248 26.38 248 46C248 65.62 243.14 84.2 226.1 84.2C209.06 84.2 203.93 65 203.93 47.06ZM209.65 25.4C208.92 25.4 208.44 26.5 208.44 27.47C208.44 28.81 209.17 29.17 209.65 29.17C209.9 29.17 210.75 28.57 210.75 27.23C210.75 25.65 210.38 25.4 209.65 25.4ZM217.2 15.06C218.2 14.21 216.95 13.11 216.59 13.11C214.76 13.11 210.26 20.54 210.26 23.58C210.26 24.31 210.38 24.58 210.87 24.58C211.11 24.58 211.72 23.73 212.45 21.9C213.545 19.3172 215.162 16.9886 217.2 15.06ZM235.69 45.84C235.69 38.84 233.87 15.06 226.08 15.06C218.29 15.06 216.83 39.4 216.83 45.97C216.83 56.19 218.41 76.51 226.08 76.51C234.11 76.51 235.69 56.07 235.69 45.84Z" fill="black"/>
<path d="M255.16 58.26V37.33H253.82C251.39 37.33 250.05 35.38 250.05 32.58C250.05 29.78 250.9 28.08 253.82 28.08H255.16V16.15C255.16 10.07 257.35 8.15002 261 8.15002C264.65 8.15002 267.69 10.46 267.69 16.55V28.11H271.46C274.38 28.11 275.46 29.57 275.46 31.88C275.46 35.05 274.46 37.36 271.93 37.36H267.67V60.2C267.67 69.08 267.91 72.49 269.62 72.49H270.62L272.57 72.13C275.97 72.13 277.07 74.56 277.07 77.73C277.07 80.16 276.22 83.32 267.58 83.32C255.16 83.32 255.16 70.91 255.16 58.26ZM252.6 29.54C251.75 29.54 251.14 31 251.14 32.7C251.14 33.8 251.51 35.38 252.36 35.38C253.21 35.38 252.48 33.19 252.48 31.73C252.48 30.88 252.85 29.54 252.6 29.54ZM259.17 9.83002C257.59 9.83002 256.62 13.23 256.62 14.57C256.62 16.4 256.86 17.13 257.23 17.13C257.83 17.13 257.96 14.69 258.32 13.6C258.93 11.9 260.51 9.83002 259.17 9.83002ZM259.66 71.15C259.54 69.82 258.66 69.08 258.2 69.08C257.2 69.08 257.35 70.91 257.35 71.76C257.35 73.1 259.05 78.58 260.76 78.58C261.24 78.58 261.85 77.73 261.85 77.24C261.85 76.75 259.78 73.47 259.66 71.15Z" fill="black"/>
<path d="M310.4 72.13V54.36C310.4 53.15 310.52 50.71 308.81 51.2L295.81 54.97C294.34 55.34 293.62 55.34 293.62 56.92V70.55C293.62 74.55 292.76 83.32 287.29 83.32C280.47 83.32 279.99 75.66 279.99 70.55V17.37C279.99 13.37 282.42 8.85001 286.92 8.85001C291.42 8.85001 293.62 13.6 293.62 17.61V42.07C293.62 43.17 293.74 44.87 295.2 44.51L309.07 40.86C310.53 40.49 310.41 39.64 310.41 38.54V17.61C310.41 14.08 311.26 8.37 315.88 8.37C321.24 8.37 324.04 13.11 324.04 17.98V72.25C324.04 76.63 321.85 83.32 316.49 83.32C310.88 83.32 310.4 76.26 310.4 72.13ZM283.51 72.86C283.51 72.25 283.51 70.79 282.65 70.79C282.05 70.79 281.92 72.37 281.92 72.86C281.92 74.32 282.41 80.04 284.36 80.04L285.09 79.67C284.72 77.6 283.51 77.24 283.51 72.86ZM315.02 80.16C313.881 78.3031 313.253 76.1779 313.2 74L312.95 73.52C312.22 73.52 312.1 75.83 312.1 76.31C312.1 78.14 312.59 81.31 315.02 81.31C315.116 81.303 315.206 81.2618 315.274 81.1939C315.342 81.1259 315.383 81.0358 315.39 80.94C315.39 80.52 315.14 80.4 315 80.16H315.02ZM316.02 10.68C316.02 10.43 315.78 10.31 315.54 10.31C313.54 10.31 312.37 13.36 312.37 14.94C312.37 15.3 312.5 16.15 312.98 16.15C314.05 16.15 316 11.65 316 10.68H316.02Z" fill="black"/>
<path d="M165.33 17.37C168.86 17.37 168.01 20.78 170.93 20.78C173.85 20.78 176 16.89 176 14C176 11.11 172.23 6.57996 165.29 6.57996C153.86 6.57996 148.29 14.12 148.29 28.58V34.42H146.34C144.64 34.42 143.34 35.76 143.34 39.28C143.34 42.8 144.68 45.37 146.34 45.37H148.29V160.25C148.29 168.16 148.65 174.98 153.4 174.98H153.64C157.42 174.98 161.55 172.66 161.55 161.71V45.36H168.85C171.53 45.36 172.38 41.83 172.38 39.52C172.38 37.45 171.77 34.41 168.98 34.41H161.43V29.17C161.44 18.59 163.27 17.37 165.33 17.37ZM158.76 11.37C155.76 14.29 153.17 17.94 152.56 22.44C152.44 22.93 152.56 25.97 151.56 25.97C150.83 25.97 150.83 24.27 150.83 23.54C150.83 18.43 154.83 10.39 158.38 10.39C158.64 10.43 159.13 11.17 158.76 11.41V11.37Z" fill="black"/>
<path d="M185.68 114.32C180.93 114.32 179.6 119.43 179.6 122.47V169.87C179.6 172.3 181.79 174.25 185.68 174.25C189.57 174.25 192.49 172.42 192.49 169.87V121.87C192.49 118.7 190.43 114.32 185.68 114.32ZM182.76 119.55C182.15 121.62 182.76 126.12 181.76 126.12C181.03 126.12 180.66 124.42 180.66 122.96C180.66 121.5 181.27 117.36 182.97 117.36C183.49 117.36 182.88 119 182.76 119.55Z" fill="black"/>
<path d="M199.28 160V105.26C199.28 101.73 200.98 98.56 205.73 98.56C206.563 98.5533 207.388 98.7126 208.159 99.0285C208.929 99.3443 209.629 99.8105 210.217 100.4C210.806 100.989 211.271 101.69 211.585 102.461C211.9 103.231 212.058 104.057 212.05 104.89V157.09C212.05 160.38 212.17 162.32 213.64 162.32H215C217.44 162.32 218.78 165 218.78 168.04C218.78 172.18 216.71 173.76 213.42 173.76H208C199.76 173.76 199.28 168 199.28 160ZM204.14 103.18C205 101.72 205.85 99.89 204.51 99.89C202.68 99.89 200.74 102.33 200.74 106.71C200.74 109.14 201.34 110.11 201.74 110.11C202.56 110.12 202.93 105.26 204.14 103.19V103.18Z" fill="black"/>
<path d="M225.8 148.7V127.77H224.46C222.03 127.77 220.69 125.82 220.69 123.02C220.69 120.22 221.54 118.52 224.46 118.52H225.8V106.59C225.8 100.51 227.99 98.59 231.64 98.59C235.29 98.59 238.33 100.9 238.33 106.99V118.55H242.11C245.03 118.55 246.11 120.01 246.11 122.32C246.11 125.48 245.11 127.8 242.58 127.8H238.32V150.67C238.32 159.56 238.57 162.96 240.27 162.96H241.27L243.22 162.6C246.63 162.6 247.72 165.03 247.72 168.2C247.72 170.63 246.87 173.79 238.23 173.79C225.8 173.76 225.8 161.35 225.8 148.7ZM223.24 120C222.39 120 221.78 121.46 221.78 123.16C221.78 124.26 222.15 125.84 223 125.84C223.85 125.84 223.12 123.65 223.12 122.19C223.12 121.32 223.49 120 223.24 120ZM229.81 100.29C228.23 100.29 227.26 103.69 227.26 105.03C227.26 106.86 227.5 107.59 227.87 107.59C228.48 107.59 228.6 105.15 228.96 104.06C229.57 102.34 231.15 100.27 229.81 100.27V100.29ZM230.3 161.61C230.18 160.28 229.3 159.55 228.84 159.55C227.84 159.55 227.99 161.37 227.99 162.22C227.99 163.56 229.69 169.04 231.4 169.04C231.88 169.04 232.49 168.19 232.49 167.7C232.49 167.21 230.42 163.91 230.3 161.59V161.61Z" fill="black"/>
<path d="M250.13 138.23C250.13 114.87 261.08 97.95 276.13 97.95C287.2 97.95 294.99 106.95 294.38 119.01C293.65 133.12 282.09 146.14 267.38 146.14C265.8 146.14 265.31 146.51 265.31 147.84C265.31 158.19 269.31 163.05 275.05 163.05C279.18 163.05 282.47 159.53 282.47 154.9C282.47 151.01 284.78 148.45 288.07 148.45C291.72 148.45 294.15 151.74 294.15 156.85C294.15 166.7 285.15 174.98 274.32 174.98C259.87 175 250.13 160.26 250.13 138.23ZM255.73 119.61C255.85 120.22 255.97 120.71 256.22 120.61C257.07 120.61 257.8 118.61 257.55 117.61C257.43 117.24 257.31 116.88 256.95 117C256.22 117.06 255.61 118.4 255.73 119.61ZM269.84 104C270.7 103.88 271.55 103.39 271.43 102.9C271.31 102.41 270.7 101.81 269.84 101.9C264.37 102.27 257.68 111.51 257.92 115.16C258.04 115.77 258.41 115.77 258.53 115.65C259.62 115.72 265 104.52 269.84 104ZM266.68 135.88C275.08 135.88 282.74 126.75 282.74 118.48C282.74 113.25 279.94 109.48 276.17 109.48C267.9 109.48 263.27 132.85 264.98 135.4C265.22 135.8 265.83 135.92 266.68 135.92V135.88Z" fill="black"/>
<path d="M298.19 166V110C298.19 101.24 299.77 98.56 304.03 98.56C307.68 98.56 310.12 101.73 310.12 107.32C310.12 109.03 309.99 110 310.48 110C310.97 110 310.85 109.39 311.09 108.78C311.94 106.59 314.62 98.56 321.92 98.56C322.625 98.5097 323.333 98.6095 323.997 98.8529C324.661 99.0962 325.265 99.4777 325.771 99.9719C326.277 100.466 326.672 101.062 326.93 101.72C327.188 102.378 327.304 103.084 327.27 103.79C327.27 106.96 326.06 110.49 322.77 110.49C316.2 110.49 311.21 123.87 311.21 133.97V167.07C311.21 171.94 307.21 173.76 303.67 173.76C299.65 173.76 298.19 170.84 298.19 166ZM301.6 100.54C300.87 100.54 299.77 102.73 299.77 104.43C299.77 106.13 300.26 106.99 300.63 106.99C301.36 106.99 301.36 104.31 301.48 103.7C301.72 102.46 302.82 100.51 301.6 100.51V100.54ZM300.38 163.94C300.02 163.94 299.77 164.79 299.77 166C299.77 168.93 300.77 171.6 301.84 171.6C302.21 171.6 302.69 171.6 302.69 170.75C302.69 170.26 301.84 169.29 301.48 167.75C301 165.73 300.87 163.91 300.38 163.91V163.94Z" fill="black"/>
<path d="M186.36 107.4C186.005 106.885 185.691 106.344 185.42 105.78C185.178 105.259 184.89 104.76 184.56 104.29C184.049 103.614 183.368 103.085 182.587 102.756C181.805 102.428 180.951 102.312 180.11 102.42C179.949 102.44 179.797 102.505 179.671 102.608C179.546 102.71 179.452 102.846 179.4 103C178.71 105.25 180 108 182.56 109.38C184.317 110.407 186.325 110.926 188.36 110.88C189.268 110.856 190.155 110.594 190.93 110.12C190.978 110.086 191.015 110.039 191.035 109.983C191.054 109.928 191.056 109.867 191.039 109.811C191.023 109.754 190.989 109.705 190.942 109.669C190.896 109.632 190.839 109.612 190.78 109.61C190.217 109.602 189.657 109.511 189.12 109.34C188.016 109.007 187.048 108.326 186.36 107.4Z" fill="black"/>
<path d="M180.76 101C180.715 101.04 180.682 101.093 180.667 101.151C180.651 101.21 180.653 101.272 180.672 101.329C180.692 101.387 180.727 101.437 180.775 101.475C180.822 101.512 180.88 101.535 180.94 101.54C181.778 101.563 182.601 101.776 183.346 102.162C184.09 102.548 184.738 103.098 185.24 103.77C185.593 104.282 185.907 104.821 186.18 105.38C186.422 105.904 186.71 106.406 187.04 106.88C187.617 107.666 188.435 108.241 189.37 108.52C190.153 108.763 190.982 108.818 191.79 108.68C191.89 108.663 191.98 108.607 192.039 108.525C192.099 108.443 192.124 108.341 192.11 108.24C191.931 106.715 191.403 105.251 190.567 103.962C189.731 102.674 188.61 101.595 187.29 100.81C186.299 100.207 185.156 99.9047 183.997 99.9384C182.838 99.9721 181.714 100.341 180.76 101Z" fill="black"/>
<path d="M354 58.2C354.942 59.1505 355.944 60.039 357 60.86C356.36 60.86 355.73 60.91 355.09 60.98C349.81 61.58 344.91 64.19 340.68 67.56C330.58 75.56 331.22 87.19 336.84 97.68C337.96 99.77 341.67 98.63 340.9 96.09C339.62 91.88 337.7 87.69 337.66 83.16C337.6 77.23 341.3 73.25 345.76 70.1C351.69 65.92 358.13 65.1 364.76 65.22C382.31 71.8 403.82 60.22 407.41 38.68C407.84 36.14 403.67 35.41 403.13 37.96C398.42 60.07 373.39 70.75 357.06 55.34C340.73 39.93 350.12 10.96 371.52 6.18998C381.6 3.93998 392.05 6.39997 401.52 9.64997C410.99 12.9 419.85 17.65 427.01 24.86C441.23 39.12 442.69 62.35 431.34 79.81C425.363 88.8189 416.741 95.7538 406.66 99.66C394.86 104.25 382.13 103.27 369.93 105.24C366.93 105.73 366.64 110.81 369.57 111.52C372.686 112.271 375.85 112.806 379.04 113.12C385.43 115.97 391.37 119.85 395.61 125.56C402.47 134.8 402.84 149.11 396.33 159.09C389.64 169.33 378.26 172.41 367.41 169.38C355 165.91 349.58 154.38 346.67 142.21C346.578 141.747 346.318 141.334 345.94 141.05C347.88 135.05 348.7 128.54 349.94 122.46C350.005 122.26 349.988 122.042 349.892 121.854C349.796 121.667 349.63 121.525 349.43 121.46C349.23 121.395 349.012 121.412 348.824 121.508C348.637 121.603 348.495 121.77 348.43 121.97C346.25 128.45 344.43 135.17 341.93 141.54C339.25 148.54 333.8 153.54 328.49 158.39C326.44 160.26 329.19 163.46 331.23 161.58C335.87 157.27 340.5 152.69 343.48 146.95C345.61 160.17 352.12 173.5 364.38 178.81C377.86 184.64 394.08 178.64 403.08 166.69C412.57 154.09 412.95 137.69 404.08 125.26C400.409 120.247 395.614 116.164 390.08 113.34C409.08 112.21 427.49 103.26 439.08 86.04C453.61 64.51 451.91 33.82 433.25 16.67C424.25 8.39999 412.25 3.98997 400.4 1.89997C388.89 -0.100028 375.69 -0.810017 364.59 4.37998C344.33 13.8 338.41 42.46 354 58.2Z" fill="black"/>
<path d="M1.71009 271C1.56142 271.011 1.4127 270.979 1.28155 270.908C1.1504 270.837 1.04231 270.73 0.970086 270.6C0.82307 270.345 0.747104 270.055 0.750084 269.76C0.790084 269.093 0.940081 268.733 1.20008 268.68C1.52692 268.598 1.86331 268.561 2.20008 268.57C3.09692 268.66 3.99662 268.43 4.74009 267.92C5.22646 267.498 5.5545 266.923 5.67008 266.29C5.80341 265.611 5.87039 264.922 5.87008 264.23V241.83C5.87039 241.138 5.80341 240.449 5.67008 239.77C5.55224 239.138 5.2246 238.563 4.74009 238.14C3.99449 237.635 3.09652 237.405 2.20008 237.49C1.86331 237.499 1.52692 237.462 1.20008 237.38C0.940081 237.3 0.790084 236.94 0.750084 236.3C0.747104 236.005 0.82307 235.715 0.970086 235.46C1.04412 235.331 1.15257 235.226 1.28327 235.155C1.41397 235.084 1.56177 235.051 1.71009 235.06L5.12008 235.18C6.19008 235.18 7.29008 235.18 8.42008 235.18H24.7201C25.0898 235.17 25.4546 235.267 25.7701 235.46C25.9241 235.591 26.0432 235.758 26.1165 235.947C26.1898 236.135 26.2151 236.339 26.1901 236.54L26.3601 244.43C26.3637 244.609 26.3144 244.785 26.2184 244.937C26.1223 245.088 25.9838 245.207 25.8201 245.28C25.516 245.457 25.1718 245.553 24.8201 245.56C24.4195 245.565 24.023 245.48 23.6601 245.31C23.499 245.244 23.3559 245.141 23.2428 245.009C23.1297 244.877 23.0499 244.719 23.0101 244.55C22.8528 243.162 22.5614 241.792 22.1401 240.46C21.8738 239.555 21.319 238.761 20.5601 238.2C19.6489 237.676 18.6109 237.413 17.5601 237.44H11.4101V252.11H21.5101C21.6523 252.121 21.7894 252.168 21.9083 252.247C22.0273 252.326 22.1243 252.433 22.1901 252.56C22.3328 252.817 22.4085 253.106 22.4101 253.4C22.4066 253.669 22.3306 253.931 22.1901 254.16C22.122 254.278 22.0223 254.376 21.9023 254.441C21.7823 254.506 21.6465 254.537 21.5101 254.53H11.4101V264.18C11.4444 264.871 11.5212 265.559 11.6401 266.24C11.7391 266.879 12.0702 267.46 12.5701 267.87C13.3054 268.373 14.1932 268.603 15.0801 268.52C15.4168 268.513 15.753 268.55 16.0801 268.63C16.3401 268.71 16.4901 269.07 16.5301 269.71C16.5295 270.006 16.4501 270.295 16.3001 270.55C16.2205 270.685 16.1038 270.795 15.9637 270.866C15.8237 270.937 15.6662 270.966 15.5101 270.95C13.1101 270.83 10.7701 270.78 8.51008 270.78C7.38341 270.78 6.27341 270.78 5.18008 270.78C4.06008 270.88 2.91009 270.93 1.71009 271Z" fill="black"/>
<path d="M30.4201 271C30.2894 270.998 30.1614 270.963 30.0478 270.898C29.9342 270.833 29.8387 270.741 29.77 270.63C29.6089 270.409 29.5214 270.143 29.52 269.87C29.59 269.31 29.74 268.99 29.97 268.94C30.2652 268.873 30.5675 268.843 30.87 268.85C31.627 268.936 32.3896 268.748 33.02 268.32C33.4046 267.936 33.6328 267.423 33.66 266.88C33.72 266.28 33.75 265.66 33.75 265.02V252.11C33.7524 251.479 33.7224 250.848 33.66 250.22C33.6283 249.687 33.4003 249.185 33.02 248.81C32.3913 248.378 31.6283 248.186 30.87 248.27C30.5543 248.277 30.2397 248.23 29.94 248.13C29.66 248.04 29.52 247.71 29.52 247.13C29.5188 246.881 29.6103 246.641 29.7767 246.456C29.9432 246.271 30.1725 246.155 30.4201 246.13C31.768 245.947 33.1037 245.683 34.4201 245.34C35.3401 245.08 36.04 244.85 36.53 244.66C36.9481 244.495 37.3846 244.381 37.83 244.32C38.0958 244.278 38.3675 244.339 38.59 244.49C38.7091 244.607 38.7992 244.75 38.853 244.908C38.9068 245.066 38.9229 245.235 38.9 245.4V265C38.9 265.667 38.93 266.287 38.99 266.86C39.0194 267.408 39.2594 267.924 39.66 268.3C40.3025 268.726 41.0738 268.913 41.84 268.83C42.1326 268.825 42.4247 268.855 42.71 268.92C42.96 268.92 43.1 269.29 43.13 269.85C43.1302 270.119 43.0539 270.383 42.91 270.61C42.8403 270.727 42.7403 270.823 42.6207 270.888C42.5011 270.953 42.3662 270.985 42.2301 270.98C41.1401 270.9 40.1301 270.85 39.2301 270.84C38.3301 270.83 37.34 270.84 36.33 270.84C35.32 270.84 34.3301 270.84 33.4501 270.84C32.5701 270.84 31.5101 270.93 30.4201 271ZM36.0101 238C35.0278 238.021 34.0751 237.663 33.35 237C33.0059 236.691 32.7322 236.311 32.5476 235.886C32.363 235.462 32.2717 235.003 32.28 234.54C32.2983 234.079 32.4257 233.63 32.6517 233.228C32.8778 232.827 33.1959 232.485 33.58 232.23C34.4126 231.57 35.4474 231.216 36.5101 231.23C36.9462 231.218 37.3797 231.301 37.7804 231.474C38.1811 231.647 38.5393 231.905 38.83 232.23C39.4411 232.92 39.7634 233.819 39.7301 234.74C39.732 235.18 39.6371 235.615 39.4522 236.014C39.2673 236.413 38.9969 236.767 38.66 237.05C37.9354 237.715 36.9833 238.076 36 238.06L36.0101 238Z" fill="black"/>
<path d="M46.5499 271C46.4208 270.997 46.2944 270.961 46.1826 270.897C46.0708 270.832 45.977 270.74 45.9099 270.63C45.7464 270.41 45.6555 270.144 45.6499 269.87C45.6499 269.31 45.8299 268.99 46.0799 268.94C46.3652 268.875 46.6574 268.845 46.9499 268.85C47.7131 268.933 48.4812 268.746 49.1199 268.32C49.5234 267.945 49.7669 267.43 49.7999 266.88C49.8499 266.28 49.8799 265.66 49.8799 265.02V237.5C49.8799 236.82 49.8799 236.19 49.7999 235.61C49.7646 235.076 49.5331 234.574 49.1499 234.2C48.525 233.768 47.765 233.576 47.0099 233.66C46.6942 233.667 46.3796 233.62 46.0799 233.52C45.7899 233.43 45.6499 233.1 45.6499 232.52C45.6487 232.271 45.7402 232.031 45.9066 231.846C46.073 231.661 46.3024 231.545 46.5499 231.52C47.8978 231.337 49.2335 231.073 50.5499 230.73C51.4699 230.47 52.1799 230.24 52.6699 230.05C53.0834 229.881 53.517 229.767 53.9599 229.71C54.1091 229.673 54.2655 229.674 54.4138 229.715C54.5621 229.756 54.6973 229.835 54.8061 229.944C54.9149 230.053 54.9936 230.188 55.0346 230.336C55.0755 230.484 55.0774 230.641 55.0399 230.79V265C55.0399 265.64 55.0399 266.26 55.1199 266.86C55.1529 267.41 55.3964 267.925 55.7999 268.3C56.4386 268.726 57.2068 268.914 57.9699 268.83C58.2625 268.825 58.5546 268.855 58.8399 268.92C59.0899 268.92 59.2299 269.29 59.2699 269.85C59.2665 270.12 59.1868 270.383 59.0399 270.61C58.9709 270.728 58.8712 270.824 58.7514 270.89C58.6315 270.955 58.4962 270.986 58.3599 270.98C57.2699 270.9 56.2699 270.85 55.3599 270.84C54.4499 270.83 53.4699 270.84 52.4499 270.84C51.4299 270.84 50.4499 270.84 49.5699 270.84C48.6899 270.84 47.6399 270.93 46.5499 271Z" fill="black"/>
<path d="M72.39 271.8C71.2647 271.798 70.1589 271.505 69.18 270.95C68.1148 270.342 67.2443 269.444 66.67 268.36C65.963 267.004 65.6185 265.488 65.67 263.96V247.37L62.4 247.48C62.2814 247.487 62.163 247.462 62.0574 247.408C61.9517 247.353 61.8628 247.271 61.8 247.17C61.67 246.96 61.6039 246.717 61.61 246.47C61.61 245.72 61.87 245.28 62.4 245.17C63.4464 245.06 64.4446 244.673 65.2918 244.049C66.139 243.425 66.8046 242.587 67.22 241.62C67.61 240.75 67.98 239.81 68.32 238.8C68.36 238.671 68.4258 238.551 68.5135 238.448C68.6011 238.345 68.7088 238.26 68.83 238.2C69.062 238.107 69.3099 238.059 69.56 238.06C69.8217 238.069 70.0795 238.126 70.32 238.23C70.4509 238.27 70.5644 238.353 70.6424 238.466C70.7204 238.578 70.7583 238.713 70.75 238.85L70.35 245.28L76.95 244.89C77.0784 244.856 77.2142 244.865 77.337 244.916C77.4597 244.967 77.5626 245.056 77.63 245.17C77.7458 245.417 77.8039 245.687 77.8 245.96C77.7969 246.345 77.7293 246.727 77.6 247.09C77.47 247.46 77.31 247.65 77.12 247.65L70.8 247.48V264.63C70.7875 265.673 71.0313 266.703 71.51 267.63C71.7545 268.084 72.1282 268.456 72.5838 268.698C73.0395 268.94 73.5567 269.042 74.07 268.99C74.5424 268.986 75.0137 268.946 75.48 268.87C76.0667 268.781 76.6386 268.613 77.18 268.37C77.3243 268.291 77.4748 268.224 77.63 268.17C77.7728 268.111 77.9256 268.081 78.08 268.08C78.2161 268.075 78.351 268.107 78.4707 268.172C78.5903 268.237 78.6902 268.333 78.76 268.45C78.9077 268.694 79.038 268.948 79.15 269.21C79.2107 269.353 79.2156 269.513 79.1637 269.659C79.1119 269.806 79.0071 269.927 78.87 270C77.889 270.671 76.7997 271.168 75.65 271.47C74.5788 271.7 73.4855 271.811 72.39 271.8Z" fill="black"/>
<path d="M97.1 271.51C94.5361 271.597 92.0004 270.952 89.79 269.65C87.8575 268.454 86.3202 266.715 85.37 264.65C84.3787 262.532 83.8764 260.218 83.9 257.88C83.8989 256.234 84.1936 254.602 84.77 253.06C85.3578 251.498 86.2065 250.048 87.28 248.77C88.3783 247.472 89.7423 246.425 91.28 245.7C92.9192 244.923 94.7162 244.536 96.53 244.57C99.99 244.57 102.593 245.463 104.34 247.25C106.109 249.089 107.171 251.494 107.34 254.04C107.411 254.532 107.346 255.035 107.152 255.493C106.958 255.951 106.643 256.348 106.24 256.64C105.358 257.086 104.377 257.3 103.39 257.26H89.65C89.6168 259.244 89.9247 261.22 90.56 263.1C91.0873 264.705 92.0792 266.118 93.41 267.16C94.9139 268.222 96.7315 268.747 98.57 268.65C99.9895 268.697 101.394 268.35 102.63 267.65C103.984 266.736 105.104 265.517 105.9 264.09C106.2 263.72 106.61 263.7 107.14 264.09C107.281 264.157 107.405 264.255 107.504 264.376C107.603 264.497 107.673 264.638 107.71 264.79C107.75 264.927 107.76 265.072 107.739 265.213C107.718 265.354 107.667 265.49 107.59 265.61C106.49 267.389 104.982 268.88 103.19 269.96C101.339 271.022 99.2333 271.558 97.1 271.51ZM89.65 255.16H98.85C99.6107 255.197 100.366 255.01 101.02 254.62C101.306 254.411 101.536 254.135 101.69 253.815C101.843 253.496 101.915 253.144 101.9 252.79C101.92 251.246 101.455 249.735 100.57 248.47C100.104 247.834 99.4846 247.327 98.7692 246.997C98.0537 246.666 97.266 246.523 96.48 246.58C95.574 246.569 94.6776 246.767 93.8607 247.159C93.0438 247.551 92.3283 248.126 91.77 248.84C90.3956 250.66 89.6514 252.879 89.65 255.16Z" fill="black"/>
<path d="M112.67 271C112.539 270.998 112.411 270.963 112.298 270.898C112.184 270.833 112.089 270.741 112.02 270.63C111.859 270.409 111.771 270.143 111.77 269.87C111.84 269.31 111.99 268.99 112.22 268.94C112.515 268.872 112.817 268.842 113.12 268.85C113.874 268.938 114.634 268.75 115.26 268.32C115.652 267.94 115.884 267.425 115.91 266.88C115.97 266.28 116 265.66 116 265.02V252.11C116.002 251.479 115.972 250.848 115.91 250.22C115.879 249.685 115.647 249.181 115.26 248.81C114.636 248.377 113.875 248.185 113.12 248.27C112.804 248.277 112.49 248.23 112.19 248.13C111.91 248.04 111.77 247.71 111.77 247.13C111.769 246.881 111.86 246.641 112.027 246.456C112.193 246.271 112.423 246.155 112.67 246.13C114.018 245.946 115.353 245.682 116.67 245.34C117.375 245.149 118.069 244.922 118.75 244.66C119.157 244.494 119.584 244.38 120.02 244.32C120.286 244.278 120.557 244.339 120.78 244.49C120.901 244.606 120.993 244.749 121.048 244.907C121.104 245.065 121.122 245.234 121.1 245.4V248.89H121.26C122.455 247.719 123.78 246.689 125.21 245.82C126.322 245.089 127.611 244.671 128.94 244.61C129.522 244.582 130.103 244.701 130.627 244.956C131.151 245.211 131.603 245.594 131.94 246.07C132.612 246.968 132.98 248.058 132.99 249.18C132.977 250.161 132.663 251.114 132.09 251.91C131.792 252.347 131.385 252.699 130.91 252.932C130.436 253.166 129.908 253.272 129.38 253.24C128.874 253.267 128.371 253.138 127.94 252.87C127.58 252.63 127.38 252.45 127.35 252.33C127.32 252.21 127.52 252.03 127.88 251.66C128.237 251.279 128.431 250.773 128.42 250.25C128.448 249.656 128.256 249.072 127.88 248.61C127.702 248.405 127.48 248.243 127.231 248.136C126.981 248.029 126.711 247.979 126.44 247.99C125.548 248.094 124.7 248.44 123.99 248.99C122.959 249.655 122.004 250.429 121.14 251.3V265C121.14 265.667 121.17 266.287 121.23 266.86C121.259 267.408 121.499 267.924 121.9 268.3C122.539 268.724 123.307 268.912 124.07 268.83C124.366 268.825 124.661 268.856 124.95 268.92C125.19 268.92 125.33 269.29 125.37 269.85C125.37 270.119 125.294 270.383 125.15 270.61C125.08 270.727 124.98 270.823 124.861 270.888C124.741 270.953 124.606 270.985 124.47 270.98C123.38 270.9 122.37 270.85 121.47 270.84C120.57 270.83 119.58 270.84 118.57 270.84C117.56 270.84 116.57 270.84 115.69 270.84C114.81 270.84 113.76 270.93 112.67 271Z" fill="black"/>
<path d="M149.84 271C149.684 271.015 149.527 270.985 149.387 270.914C149.247 270.843 149.13 270.734 149.05 270.6C148.903 270.345 148.827 270.055 148.83 269.76C148.87 269.093 149.02 268.733 149.28 268.68C149.607 268.598 149.943 268.561 150.28 268.57C151.177 268.66 152.076 268.43 152.82 267.92C153.306 267.498 153.634 266.923 153.75 266.29C153.88 265.61 153.964 264.922 154 264.23V241.83C153.964 241.138 153.88 240.45 153.75 239.77C153.632 239.138 153.304 238.563 152.82 238.14C152.074 237.635 151.176 237.405 150.28 237.49C149.943 237.499 149.607 237.462 149.28 237.38C149.02 237.3 148.87 236.94 148.83 236.3C148.827 236.005 148.903 235.715 149.05 235.46C149.132 235.327 149.249 235.22 149.389 235.149C149.528 235.078 149.684 235.048 149.84 235.06L153.26 235.18C154.33 235.18 155.43 235.18 156.56 235.18C158.85 235.18 161.2 235.18 163.61 235.01C163.761 235.003 163.911 235.037 164.044 235.107C164.178 235.177 164.29 235.282 164.37 235.41C164.535 235.659 164.622 235.951 164.62 236.25C164.62 236.89 164.43 237.25 164.17 237.33C163.843 237.409 163.507 237.446 163.17 237.44C162.283 237.361 161.397 237.59 160.66 238.09C160.162 238.502 159.832 239.082 159.73 239.72C159.611 240.401 159.534 241.089 159.5 241.78V264.18C159.534 264.871 159.611 265.559 159.73 266.24C159.829 266.879 160.16 267.46 160.66 267.87C161.395 268.374 162.283 268.604 163.17 268.52C163.507 268.514 163.843 268.551 164.17 268.63C164.43 268.71 164.59 269.07 164.62 269.71C164.622 270.009 164.535 270.301 164.37 270.55C164.292 270.68 164.18 270.785 164.046 270.856C163.912 270.926 163.761 270.959 163.61 270.95C161.2 270.83 158.87 270.78 156.61 270.78C155.49 270.78 154.37 270.78 153.29 270.78C152.21 270.78 151.05 270.93 149.84 271Z" fill="black"/>
<path d="M177.94 271.8C176.762 271.802 175.606 271.483 174.596 270.877C173.587 270.271 172.762 269.401 172.21 268.36C171.503 267.004 171.158 265.488 171.21 263.96V247.37L167.94 247.48C167.823 247.486 167.706 247.461 167.602 247.406C167.498 247.352 167.411 247.27 167.35 247.17C167.216 246.961 167.147 246.718 167.15 246.47C167.15 245.72 167.42 245.28 167.94 245.17C168.986 245.054 169.982 244.664 170.83 244.041C171.678 243.418 172.347 242.583 172.77 241.62C173.16 240.75 173.53 239.81 173.87 238.8C173.909 238.672 173.973 238.552 174.059 238.449C174.145 238.346 174.251 238.261 174.37 238.2C174.606 238.107 174.857 238.059 175.11 238.06C175.372 238.07 175.629 238.128 175.87 238.23C175.998 238.273 176.108 238.357 176.184 238.469C176.26 238.581 176.297 238.715 176.29 238.85L175.9 245.28L182.5 244.89C182.627 244.855 182.762 244.864 182.883 244.915C183.005 244.965 183.106 245.055 183.17 245.17C183.291 245.415 183.349 245.687 183.34 245.96C183.34 246.345 183.276 246.727 183.15 247.09C183.01 247.46 182.85 247.65 182.67 247.65L176.35 247.48V264.63C176.334 265.672 176.575 266.702 177.05 267.63C177.297 268.084 177.673 268.456 178.13 268.697C178.587 268.939 179.105 269.041 179.62 268.99C180.092 268.985 180.564 268.945 181.03 268.87C181.614 268.782 182.182 268.614 182.72 268.37C182.864 268.291 183.015 268.224 183.17 268.17C183.316 268.111 183.472 268.08 183.63 268.08C183.765 268.075 183.898 268.106 184.017 268.172C184.135 268.237 184.233 268.333 184.3 268.45C184.447 268.696 184.581 268.95 184.7 269.21C184.762 269.354 184.767 269.516 184.713 269.663C184.659 269.81 184.551 269.931 184.41 270C183.433 270.673 182.347 271.17 181.2 271.47C180.129 271.699 179.035 271.81 177.94 271.8Z" fill="black"/>
<path d="M193.34 271.51C192.871 271.523 192.404 271.441 191.968 271.269C191.531 271.098 191.134 270.839 190.8 270.51C190.465 270.174 190.202 269.772 190.03 269.33C189.858 268.888 189.78 268.414 189.8 267.94C189.789 267.48 189.872 267.023 190.043 266.597C190.215 266.17 190.473 265.783 190.8 265.46C191.499 264.804 192.421 264.439 193.38 264.439C194.339 264.439 195.261 264.804 195.96 265.46C196.29 265.781 196.549 266.168 196.722 266.595C196.894 267.022 196.975 267.48 196.96 267.94C196.984 268.415 196.907 268.889 196.735 269.332C196.563 269.775 196.298 270.176 195.96 270.51C195.61 270.841 195.199 271.099 194.75 271.271C194.3 271.442 193.821 271.524 193.34 271.51Z" fill="black"/>
<path d="M215.62 271C215.473 271.012 215.325 270.98 215.195 270.909C215.066 270.838 214.96 270.73 214.89 270.6C214.74 270.345 214.66 270.056 214.66 269.76C214.7 269.093 214.85 268.733 215.11 268.68C215.437 268.598 215.773 268.561 216.11 268.57C217.007 268.66 217.906 268.43 218.65 267.92C219.136 267.498 219.464 266.923 219.58 266.29C219.713 265.611 219.78 264.922 219.78 264.23V241.83C219.78 241.139 219.713 240.449 219.58 239.77C219.462 239.138 219.134 238.563 218.65 238.14C217.904 237.635 217.006 237.405 216.11 237.49C215.773 237.499 215.437 237.462 215.11 237.38C214.85 237.3 214.7 236.94 214.66 236.3C214.66 236.005 214.74 235.715 214.89 235.46C214.961 235.331 215.068 235.225 215.197 235.154C215.326 235.084 215.473 235.051 215.62 235.06L219.03 235.18C220.1 235.18 221.2 235.18 222.33 235.18H238.63C239 235.17 239.364 235.267 239.68 235.46C239.834 235.591 239.953 235.758 240.026 235.947C240.1 236.135 240.125 236.339 240.1 236.54L240.27 244.43C240.273 244.608 240.225 244.783 240.131 244.933C240.037 245.084 239.901 245.205 239.74 245.28C239.435 245.454 239.091 245.55 238.74 245.56C238.339 245.565 237.943 245.48 237.58 245.31C237.419 245.244 237.276 245.141 237.163 245.009C237.05 244.877 236.97 244.719 236.93 244.55C236.777 243.161 236.486 241.791 236.06 240.46C235.794 239.555 235.239 238.761 234.48 238.2C233.569 237.676 232.531 237.413 231.48 237.44H225.33V252.11H235.43C235.572 252.121 235.709 252.168 235.828 252.247C235.947 252.326 236.044 252.433 236.11 252.56C236.257 252.815 236.333 253.105 236.33 253.4C236.331 253.669 236.255 253.933 236.11 254.16C236.042 254.278 235.942 254.376 235.822 254.441C235.702 254.506 235.566 254.537 235.43 254.53H225.33V264.18C225.364 264.871 225.441 265.559 225.56 266.24C225.659 266.879 225.99 267.46 226.49 267.87C227.225 268.373 228.113 268.603 229 268.52C229.337 268.513 229.673 268.55 230 268.63C230.26 268.71 230.41 269.07 230.45 269.71C230.449 270.006 230.37 270.295 230.22 270.55C230.14 270.685 230.024 270.795 229.884 270.866C229.744 270.937 229.586 270.966 229.43 270.95C227.03 270.83 224.69 270.78 222.43 270.78C221.303 270.78 220.193 270.78 219.1 270.78C218 270.88 216.82 270.93 215.62 271Z" fill="black"/>
<path d="M244.22 271C244.089 270.998 243.961 270.963 243.848 270.898C243.734 270.833 243.639 270.741 243.57 270.63C243.409 270.409 243.321 270.143 243.32 269.87C243.39 269.31 243.54 268.99 243.77 268.94C244.065 268.872 244.367 268.842 244.67 268.85C245.427 268.936 246.19 268.748 246.82 268.32C247.205 267.936 247.433 267.423 247.46 266.88C247.52 266.28 247.55 265.66 247.55 265.02V252.11C247.552 251.479 247.522 250.848 247.46 250.22C247.428 249.687 247.2 249.185 246.82 248.81C246.191 248.378 245.428 248.186 244.67 248.27C244.354 248.277 244.04 248.23 243.74 248.13C243.46 248.04 243.32 247.71 243.32 247.13C243.319 246.881 243.41 246.641 243.577 246.456C243.743 246.271 243.973 246.155 244.22 246.13C245.568 245.947 246.904 245.683 248.22 245.34C248.925 245.149 249.619 244.922 250.3 244.66C250.708 244.494 251.134 244.38 251.57 244.32C251.719 244.283 251.876 244.284 252.024 244.325C252.172 244.366 252.307 244.445 252.416 244.554C252.525 244.663 252.604 244.798 252.645 244.946C252.686 245.094 252.688 245.251 252.65 245.4V248.89H252.81C254.005 247.719 255.33 246.689 256.76 245.82C257.872 245.089 259.161 244.671 260.49 244.61C261.073 244.582 261.653 244.701 262.177 244.956C262.701 245.211 263.153 245.594 263.49 246.07C264.144 246.975 264.495 248.064 264.49 249.18C264.477 250.161 264.163 251.114 263.59 251.91C263.292 252.347 262.885 252.699 262.411 252.932C261.936 253.166 261.408 253.272 260.88 253.24C260.374 253.267 259.871 253.138 259.44 252.87C259.08 252.63 258.88 252.45 258.85 252.33C258.984 252.076 259.164 251.849 259.38 251.66C259.737 251.279 259.931 250.773 259.92 250.25C259.948 249.656 259.756 249.072 259.38 248.61C259.208 248.415 258.995 248.259 258.757 248.153C258.519 248.048 258.261 247.996 258 248C257.108 248.104 256.26 248.45 255.55 249C254.52 249.665 253.564 250.439 252.7 251.31V265C252.7 265.667 252.73 266.287 252.79 266.86C252.819 267.408 253.059 267.924 253.46 268.3C254.103 268.726 254.874 268.913 255.64 268.83C255.933 268.825 256.225 268.856 256.51 268.92C256.75 268.92 256.89 269.29 256.93 269.85C256.93 270.119 256.854 270.383 256.71 270.61C256.64 270.727 256.54 270.823 256.421 270.888C256.301 270.953 256.166 270.985 256.03 270.98C254.94 270.9 253.93 270.85 253.03 270.84C252.13 270.83 251.14 270.84 250.13 270.84C249.12 270.84 248.13 270.84 247.25 270.84C246.37 270.84 245.31 270.93 244.22 271Z" fill="black"/>
<path d="M280.66 271.51C278.226 271.563 275.828 270.917 273.75 269.65C271.841 268.466 270.267 266.813 269.177 264.85C268.087 262.886 267.516 260.676 267.52 258.43C267.481 256.391 267.884 254.368 268.7 252.5C269.437 250.856 270.502 249.379 271.83 248.16C273.079 247.027 274.522 246.13 276.09 245.51C277.544 244.928 279.094 244.622 280.66 244.61C283.094 244.555 285.492 245.201 287.57 246.47C289.478 247.656 291.052 249.309 292.143 251.272C293.235 253.235 293.809 255.444 293.81 257.69C293.846 259.733 293.429 261.758 292.59 263.62C291.844 265.267 290.768 266.744 289.43 267.96C288.186 269.1 286.742 269.998 285.17 270.61C283.736 271.19 282.206 271.495 280.66 271.51ZM280.66 269.43C281.462 269.471 282.264 269.347 283.016 269.065C283.767 268.783 284.453 268.349 285.03 267.79C286.171 266.584 286.972 265.097 287.35 263.48C287.831 261.588 288.066 259.642 288.05 257.69C288.071 255.841 287.825 253.999 287.32 252.22C286.907 250.696 286.088 249.314 284.95 248.22C283.72 247.217 282.178 246.676 280.59 246.691C279.003 246.705 277.471 247.275 276.26 248.3C275.114 249.47 274.315 250.934 273.95 252.53C273.482 254.421 273.253 256.362 273.27 258.31C273.258 260.16 273.497 262.004 273.98 263.79C274.371 265.342 275.18 266.757 276.32 267.88C277.507 268.947 279.066 269.504 280.66 269.43Z" fill="black"/>
<path d="M308 271.8C306.875 271.798 305.769 271.505 304.79 270.95C303.725 270.342 302.854 269.444 302.28 268.36C301.573 267.004 301.229 265.488 301.28 263.96V247.37L298.01 247.48C297.891 247.487 297.773 247.462 297.667 247.408C297.562 247.353 297.473 247.271 297.41 247.17C297.28 246.96 297.214 246.717 297.22 246.47C297.22 245.72 297.48 245.28 298.01 245.17C299.057 245.06 300.055 244.673 300.902 244.049C301.749 243.425 302.415 242.587 302.83 241.62C303.22 240.75 303.59 239.81 303.93 238.8C303.97 238.671 304.036 238.551 304.124 238.448C304.211 238.345 304.319 238.26 304.44 238.2C304.672 238.107 304.92 238.059 305.17 238.06C305.432 238.069 305.69 238.126 305.93 238.23C306.061 238.27 306.175 238.353 306.253 238.466C306.331 238.578 306.368 238.713 306.36 238.85L305.96 245.28L312.56 244.89C312.689 244.856 312.824 244.865 312.947 244.916C313.07 244.967 313.173 245.056 313.24 245.17C313.356 245.417 313.414 245.687 313.41 245.96C313.407 246.345 313.339 246.727 313.21 247.09C313.08 247.46 312.92 247.65 312.73 247.65L306.41 247.48V264.63C306.398 265.673 306.641 266.703 307.12 267.63C307.365 268.084 307.738 268.456 308.194 268.698C308.65 268.94 309.167 269.042 309.68 268.99C310.152 268.986 310.624 268.946 311.09 268.87C311.677 268.781 312.249 268.613 312.79 268.37C312.934 268.291 313.085 268.224 313.24 268.17C313.383 268.111 313.536 268.081 313.69 268.08C313.826 268.075 313.961 268.107 314.081 268.172C314.2 268.237 314.3 268.333 314.37 268.45C314.518 268.694 314.648 268.948 314.76 269.21C314.821 269.353 314.826 269.513 314.774 269.659C314.722 269.806 314.617 269.927 314.48 270C313.499 270.671 312.41 271.168 311.26 271.47C310.189 271.7 309.096 271.811 308 271.8Z" fill="black"/>
<path d="M319.42 271C319.284 271.005 319.149 270.973 319.029 270.908C318.91 270.843 318.81 270.747 318.74 270.63C318.593 270.403 318.513 270.14 318.51 269.87C318.51 269.31 318.69 268.99 318.94 268.94C319.225 268.875 319.517 268.845 319.81 268.85C320.573 268.934 321.341 268.746 321.98 268.32C322.383 267.945 322.627 267.43 322.66 266.88C322.72 266.28 322.75 265.66 322.75 265.02V237.5C322.752 236.869 322.722 236.238 322.66 235.61C322.625 235.076 322.393 234.574 322.01 234.2C321.386 233.767 320.625 233.575 319.87 233.66C319.554 233.667 319.24 233.62 318.94 233.52C318.66 233.43 318.51 233.1 318.51 232.52C318.509 232.27 318.602 232.028 318.77 231.843C318.939 231.658 319.171 231.543 319.42 231.52C320.768 231.337 322.104 231.074 323.42 230.73C324.141 230.538 324.849 230.301 325.54 230.02C325.95 229.835 326.391 229.73 326.84 229.71C327.107 229.703 327.371 229.773 327.6 229.91C327.8 230.04 327.91 230.33 327.91 230.79V249H328C328.75 248.29 329.52 247.6 330.31 246.94C331.151 246.251 332.096 245.701 333.11 245.31C334.388 244.835 335.747 244.614 337.11 244.66C338.231 244.604 339.352 244.781 340.401 245.178C341.451 245.576 342.407 246.186 343.21 246.97C343.972 247.784 344.564 248.742 344.95 249.788C345.337 250.834 345.51 251.946 345.46 253.06V265.06C345.46 265.727 345.49 266.347 345.55 266.92C345.579 267.468 345.819 267.984 346.22 268.36C346.842 268.781 347.593 268.968 348.34 268.89C348.643 268.882 348.945 268.912 349.24 268.98C349.47 268.98 349.6 269.35 349.64 269.91C349.638 270.176 349.569 270.437 349.44 270.67C349.379 270.788 349.285 270.885 349.17 270.951C349.054 271.016 348.922 271.047 348.79 271.04C347.7 270.96 346.68 270.91 345.79 270.9C344.9 270.89 343.89 270.9 342.91 270.9C341.93 270.9 340.91 270.9 340.03 270.9C339.15 270.9 338.13 270.96 337.03 271.04C336.894 271.045 336.759 271.013 336.639 270.948C336.52 270.883 336.42 270.787 336.35 270.67C336.206 270.443 336.13 270.179 336.13 269.91C336.13 269.35 336.3 269.03 336.52 268.98C336.818 268.913 337.124 268.882 337.43 268.89C338.193 268.972 338.961 268.784 339.6 268.36C339.999 267.985 340.232 267.467 340.25 266.92C340.25 266.32 340.3 265.7 340.3 265.06V253.06C340.369 252.293 340.251 251.52 339.957 250.808C339.663 250.095 339.2 249.465 338.61 248.97C337.561 248.152 336.27 247.705 334.94 247.7C333.775 247.675 332.619 247.914 331.56 248.4C330.685 248.8 329.884 249.344 329.19 250.01C328.697 250.469 328.278 251.002 327.95 251.59V265C327.95 265.64 327.95 266.26 328.03 266.86C328.067 267.409 328.31 267.923 328.71 268.3C329.332 268.721 330.083 268.908 330.83 268.83C331.133 268.823 331.435 268.853 331.73 268.92C331.95 268.92 332.09 269.29 332.12 269.85C332.121 270.115 332.056 270.376 331.93 270.61C331.868 270.727 331.774 270.824 331.659 270.889C331.544 270.955 331.412 270.986 331.28 270.98C330.19 270.9 329.17 270.85 328.23 270.84C327.29 270.83 326.33 270.84 325.35 270.84C324.37 270.84 323.35 270.84 322.48 270.84C321.61 270.84 320.51 270.93 319.42 271Z" fill="black"/>
<path d="M366.41 271C366.254 271.016 366.097 270.987 365.956 270.916C365.816 270.845 365.7 270.735 365.62 270.6C365.47 270.345 365.391 270.056 365.39 269.76C365.43 269.093 365.58 268.733 365.84 268.68C366.167 268.598 366.503 268.561 366.84 268.57C367.737 268.66 368.637 268.43 369.38 267.92C369.866 267.498 370.195 266.923 370.31 266.29C370.446 265.611 370.529 264.922 370.56 264.23V241.83C370.529 241.138 370.446 240.449 370.31 239.77C370.192 239.138 369.865 238.563 369.38 238.14C368.635 237.635 367.737 237.405 366.84 237.49C366.503 237.499 366.167 237.462 365.84 237.38C365.58 237.3 365.43 236.94 365.39 236.3C365.391 236.005 365.47 235.715 365.62 235.46C365.701 235.326 365.819 235.218 365.958 235.147C366.098 235.077 366.254 235.046 366.41 235.06L369.82 235.18C370.89 235.18 371.99 235.18 373.12 235.18C375.41 235.18 377.76 235.18 380.12 235.01C380.271 235.003 380.421 235.037 380.554 235.107C380.688 235.177 380.8 235.282 380.88 235.41C381.048 235.658 381.139 235.95 381.14 236.25C381.14 236.89 380.95 237.25 380.68 237.33C380.353 237.409 380.017 237.446 379.68 237.44C378.794 237.362 377.907 237.592 377.17 238.09C376.672 238.502 376.342 239.082 376.24 239.72C376.121 240.401 376.044 241.089 376.01 241.78V264.18C376.044 264.871 376.121 265.559 376.24 266.24C376.339 266.879 376.67 267.46 377.17 267.87C377.905 268.373 378.793 268.603 379.68 268.52C380.017 268.514 380.353 268.551 380.68 268.63C380.95 268.71 381.1 269.07 381.14 269.71C381.139 270.01 381.048 270.302 380.88 270.55C380.802 270.68 380.69 270.785 380.556 270.856C380.422 270.926 380.271 270.959 380.12 270.95C377.71 270.83 375.38 270.78 373.12 270.78C371.987 270.78 370.877 270.78 369.79 270.78C368.76 270.88 367.61 270.93 366.41 271Z" fill="black"/>
<path d="M394.5 271.8C393.323 271.799 392.168 271.479 391.159 270.873C390.15 270.267 389.324 269.398 388.77 268.36C388.069 267.002 387.724 265.488 387.77 263.96V247.37L384.5 247.48C384.381 247.488 384.262 247.464 384.157 247.409C384.051 247.354 383.962 247.272 383.9 247.17C383.77 246.96 383.704 246.717 383.71 246.47C383.71 245.72 383.97 245.28 384.5 245.17C385.544 245.052 386.539 244.662 387.384 244.039C388.23 243.416 388.898 242.582 389.32 241.62C389.71 240.75 390.08 239.81 390.42 238.8C390.46 238.671 390.526 238.551 390.614 238.448C390.701 238.345 390.809 238.26 390.93 238.2C391.162 238.107 391.41 238.059 391.66 238.06C391.922 238.069 392.18 238.126 392.42 238.23C392.548 238.273 392.658 238.358 392.734 238.469C392.81 238.581 392.847 238.715 392.84 238.85L392.45 245.28L399.05 244.89C399.178 244.856 399.314 244.865 399.437 244.916C399.56 244.967 399.663 245.056 399.73 245.17C399.846 245.417 399.904 245.687 399.9 245.96C399.897 246.345 399.829 246.727 399.7 247.09C399.57 247.46 399.41 247.65 399.22 247.65L392.9 247.48V264.63C392.888 265.673 393.131 266.703 393.61 267.63C393.855 268.084 394.228 268.456 394.684 268.698C395.14 268.94 395.657 269.042 396.17 268.99C396.642 268.986 397.114 268.946 397.58 268.87C398.164 268.782 398.733 268.614 399.27 268.37C399.419 268.293 399.572 268.226 399.73 268.17C399.873 268.111 400.026 268.081 400.18 268.08C400.315 268.075 400.449 268.106 400.567 268.172C400.685 268.237 400.783 268.333 400.85 268.45C401.001 268.694 401.135 268.948 401.25 269.21C401.311 269.353 401.316 269.513 401.264 269.659C401.212 269.806 401.107 269.927 400.97 270C399.989 270.671 398.9 271.168 397.75 271.47C396.682 271.699 395.592 271.809 394.5 271.8Z" fill="black"/>
<path d="M409.9 271.51C409.428 271.53 408.958 271.451 408.518 271.28C408.079 271.109 407.679 270.848 407.346 270.514C407.012 270.181 406.751 269.781 406.58 269.342C406.408 268.902 406.33 268.431 406.35 267.96C406.34 267.501 406.424 267.044 406.596 266.618C406.768 266.191 407.024 265.804 407.35 265.48C408.049 264.824 408.971 264.459 409.93 264.459C410.888 264.459 411.811 264.824 412.51 265.48C412.849 265.797 413.117 266.182 413.298 266.609C413.479 267.036 413.568 267.496 413.56 267.96C413.577 268.438 413.492 268.915 413.311 269.358C413.13 269.801 412.857 270.2 412.51 270.53C412.161 270.857 411.75 271.112 411.302 271.28C410.855 271.448 410.378 271.526 409.9 271.51Z" fill="black"/>
<path d="M432.18 271C432.033 271.012 431.885 270.98 431.755 270.909C431.626 270.838 431.52 270.73 431.45 270.6C431.3 270.345 431.221 270.056 431.22 269.76C431.26 269.093 431.41 268.733 431.67 268.68C431.997 268.6 432.333 268.563 432.67 268.57C433.567 268.662 434.467 268.431 435.21 267.92C435.696 267.498 436.024 266.923 436.14 266.29C436.273 265.611 436.34 264.922 436.34 264.23V241.83C436.34 241.139 436.273 240.449 436.14 239.77C436.022 239.138 435.695 238.563 435.21 238.14C434.465 237.634 433.567 237.404 432.67 237.49C432.333 237.497 431.997 237.46 431.67 237.38C431.41 237.3 431.26 236.94 431.22 236.3C431.221 236.005 431.3 235.715 431.45 235.46C431.522 235.331 431.628 235.225 431.757 235.154C431.886 235.084 432.033 235.051 432.18 235.06L435.59 235.18C436.67 235.18 437.77 235.18 438.89 235.18H455.2C455.553 235.179 455.899 235.276 456.2 235.46C456.354 235.591 456.473 235.758 456.546 235.947C456.62 236.135 456.645 236.339 456.62 236.54L456.79 244.43C456.793 244.608 456.745 244.783 456.651 244.933C456.557 245.084 456.421 245.205 456.26 245.28C455.955 245.454 455.611 245.55 455.26 245.56C454.86 245.564 454.463 245.479 454.1 245.31C453.94 245.243 453.797 245.139 453.685 245.007C453.572 244.875 453.491 244.719 453.45 244.55C453.298 243.161 453.006 241.791 452.58 240.46C452.317 239.553 451.762 238.758 451 238.2C450.089 237.674 449.051 237.411 448 237.44H441.85V252.11H452C452.142 252.121 452.279 252.168 452.398 252.247C452.517 252.326 452.614 252.433 452.68 252.56C452.827 252.815 452.903 253.105 452.9 253.4C452.901 253.669 452.825 253.933 452.68 254.16C452.612 254.278 452.512 254.376 452.392 254.441C452.272 254.506 452.136 254.537 452 254.53H441.9V264.18C441.939 264.87 442.016 265.558 442.13 266.24C442.229 266.879 442.56 267.46 443.06 267.87C443.795 268.373 444.683 268.603 445.57 268.52C445.907 268.511 446.243 268.548 446.57 268.63C446.83 268.71 446.98 269.07 447.02 269.71C447.023 270.005 446.947 270.295 446.8 270.55C446.719 270.684 446.602 270.792 446.462 270.863C446.322 270.933 446.166 270.964 446.01 270.95C443.6 270.83 441.27 270.78 439.01 270.78C437.883 270.78 436.773 270.78 435.68 270.78C434.53 270.88 433.38 270.93 432.18 271Z" fill="black"/>
<path d="M471.67 271.51C469.109 271.599 466.576 270.953 464.37 269.65C462.432 268.457 460.891 266.717 459.94 264.65C458.949 262.532 458.446 260.218 458.47 257.88C458.469 256.234 458.764 254.602 459.34 253.06C459.928 251.498 460.777 250.048 461.85 248.77C462.936 247.481 464.282 246.434 465.8 245.7C467.439 244.923 469.236 244.536 471.05 244.57C474.51 244.57 477.113 245.463 478.86 247.25C480.629 249.089 481.691 251.494 481.86 254.04C481.931 254.532 481.866 255.035 481.672 255.493C481.478 255.951 481.163 256.348 480.76 256.64C479.879 257.086 478.897 257.3 477.91 257.26H464.22C464.187 259.244 464.495 261.22 465.13 263.1C465.656 264.723 466.655 266.151 468 267.2C469.504 268.262 471.322 268.787 473.16 268.69C474.58 268.736 475.984 268.39 477.22 267.69C478.574 266.776 479.694 265.557 480.49 264.13C480.79 263.76 481.2 263.74 481.73 264.13C481.871 264.197 481.996 264.294 482.094 264.416C482.193 264.537 482.263 264.678 482.3 264.83C482.34 264.967 482.35 265.112 482.329 265.253C482.308 265.394 482.258 265.53 482.18 265.65C481.08 267.429 479.572 268.92 477.78 270C475.92 271.053 473.807 271.575 471.67 271.51ZM464.22 255.16H473.42C474.181 255.197 474.936 255.01 475.59 254.62C475.876 254.411 476.106 254.135 476.26 253.815C476.413 253.496 476.485 253.144 476.47 252.79C476.49 251.246 476.025 249.735 475.14 248.47C474.674 247.834 474.055 247.327 473.339 246.997C472.624 246.666 471.836 246.523 471.05 246.58C470.144 246.569 469.248 246.767 468.431 247.159C467.614 247.551 466.898 248.126 466.34 248.84C464.966 250.66 464.221 252.879 464.22 255.16Z" fill="black"/>
<path d="M500 271.51C497.436 271.597 494.9 270.952 492.69 269.65C490.757 268.451 489.217 266.713 488.26 264.65C487.277 262.53 486.778 260.217 486.8 257.88C486.799 256.234 487.094 254.602 487.67 253.06C488.258 251.498 489.107 250.048 490.18 248.77C491.278 247.472 492.642 246.425 494.18 245.7C495.819 244.922 497.616 244.535 499.43 244.57C502.89 244.57 505.493 245.463 507.24 247.25C509.009 249.089 510.071 251.494 510.24 254.04C510.311 254.532 510.246 255.035 510.052 255.493C509.858 255.951 509.543 256.348 509.14 256.64C508.259 257.086 507.277 257.3 506.29 257.26H492.54C492.507 259.244 492.815 261.22 493.45 263.1C493.977 264.703 494.965 266.115 496.29 267.16C497.798 268.22 499.619 268.745 501.46 268.65C502.88 268.697 504.284 268.35 505.52 267.65C506.874 266.736 507.994 265.517 508.79 264.09C509.09 263.72 509.5 263.7 510.03 264.09C510.171 264.155 510.296 264.252 510.393 264.374C510.49 264.495 510.558 264.638 510.59 264.79C510.631 264.927 510.643 265.07 510.624 265.212C510.605 265.353 510.556 265.489 510.48 265.61C509.38 267.389 507.872 268.88 506.08 269.96C504.232 271.021 502.13 271.557 500 271.51ZM492.55 255.16H501.75C502.511 255.196 503.265 255.008 503.92 254.62C504.205 254.411 504.434 254.134 504.585 253.815C504.737 253.495 504.807 253.143 504.79 252.79C504.814 251.247 504.352 249.736 503.47 248.47C503.004 247.835 502.384 247.328 501.669 246.998C500.953 246.667 500.166 246.524 499.38 246.58C498.474 246.569 497.578 246.767 496.761 247.159C495.944 247.551 495.228 248.126 494.67 248.84C493.292 250.659 492.544 252.878 492.54 255.16H492.55Z" fill="black"/>
<path d="M514 271C513.869 270.998 513.741 270.963 513.628 270.898C513.514 270.833 513.419 270.741 513.35 270.63C513.189 270.409 513.101 270.143 513.1 269.87C513.1 269.31 513.27 268.99 513.52 268.94C513.806 268.876 514.098 268.845 514.39 268.85C515.156 268.933 515.928 268.746 516.57 268.32C516.971 267.944 517.211 267.428 517.24 266.88C517.3 266.28 517.33 265.66 517.33 265.02V237.5C517.333 236.869 517.302 236.238 517.24 235.61C517.21 235.075 516.977 234.571 516.59 234.2C515.966 233.767 515.205 233.575 514.45 233.66C514.134 233.667 513.82 233.62 513.52 233.52C513.24 233.433 513.1 233.1 513.1 232.52C513.099 232.271 513.19 232.031 513.357 231.846C513.523 231.661 513.753 231.545 514 231.52C515.348 231.336 516.684 231.072 518 230.73C518.92 230.47 519.62 230.24 520.11 230.05C520.527 229.88 520.964 229.766 521.41 229.71C521.676 229.669 521.947 229.73 522.17 229.88C522.29 229.997 522.38 230.14 522.434 230.298C522.488 230.456 522.504 230.625 522.48 230.79V265C522.48 265.667 522.51 266.287 522.57 266.86C522.599 267.408 522.839 267.924 523.24 268.3C523.88 268.724 524.647 268.912 525.41 268.83C525.706 268.825 526.001 268.856 526.29 268.92C526.53 268.92 526.67 269.29 526.71 269.85C526.71 270.119 526.634 270.383 526.49 270.61C526.42 270.727 526.32 270.823 526.201 270.888C526.081 270.953 525.946 270.985 525.81 270.98C524.72 270.9 523.71 270.85 522.81 270.84C521.91 270.83 520.92 270.84 519.91 270.84C518.9 270.84 517.91 270.84 517.03 270.84C516.15 270.84 515.07 270.93 514 271Z" fill="black"/>
<path d="M543.88 271C543.724 271.016 543.566 270.987 543.426 270.916C543.286 270.845 543.169 270.735 543.09 270.6C542.94 270.345 542.86 270.056 542.86 269.76C542.9 269.093 543.05 268.733 543.31 268.68C543.637 268.6 543.973 268.563 544.31 268.57C545.207 268.66 546.106 268.43 546.85 267.92C547.336 267.498 547.664 266.923 547.78 266.29C547.914 265.61 548.001 264.922 548.04 264.23V241.83C548.001 241.138 547.914 240.45 547.78 239.77C547.662 239.138 547.334 238.563 546.85 238.14C546.104 237.635 545.206 237.405 544.31 237.49C543.973 237.497 543.637 237.46 543.31 237.38C543.05 237.3 542.9 236.94 542.86 236.3C542.86 236.005 542.94 235.715 543.09 235.46C543.171 235.326 543.288 235.218 543.428 235.147C543.567 235.077 543.724 235.046 543.88 235.06L547.29 235.18C548.36 235.18 549.46 235.18 550.59 235.18C552.88 235.18 555.23 235.18 557.59 235.01C557.741 235.003 557.891 235.037 558.024 235.107C558.158 235.177 558.27 235.282 558.35 235.41C558.518 235.658 558.608 235.95 558.61 236.25C558.57 236.917 558.42 237.277 558.16 237.33C557.832 237.407 557.496 237.444 557.16 237.44C556.273 237.362 555.387 237.592 554.65 238.09C554.152 238.502 553.822 239.082 553.72 239.72C553.606 240.402 553.529 241.09 553.49 241.78V264.18C553.529 264.87 553.606 265.558 553.72 266.24C553.819 266.879 554.15 267.46 554.65 267.87C555.385 268.373 556.273 268.603 557.16 268.52C557.496 268.516 557.832 268.553 558.16 268.63C558.42 268.71 558.57 269.07 558.61 269.71C558.608 270.01 558.518 270.302 558.35 270.55C558.272 270.68 558.16 270.785 558.026 270.856C557.892 270.926 557.741 270.959 557.59 270.95C555.18 270.83 552.85 270.78 550.59 270.78C549.457 270.78 548.347 270.78 547.26 270.78C546.23 270.88 545.08 270.93 543.88 271Z" fill="black"/>
<path d="M572 271.8C570.875 271.798 569.769 271.505 568.79 270.95C567.725 270.342 566.854 269.444 566.28 268.36C565.573 267.004 565.229 265.488 565.28 263.96V247.37L562.01 247.48C561.891 247.487 561.773 247.462 561.667 247.408C561.562 247.353 561.473 247.271 561.41 247.17C561.28 246.96 561.214 246.717 561.22 246.47C561.22 245.72 561.48 245.28 562.01 245.17C563.057 245.06 564.055 244.673 564.902 244.049C565.749 243.425 566.415 242.587 566.83 241.62C567.22 240.75 567.59 239.81 567.93 238.8C567.97 238.671 568.036 238.551 568.124 238.448C568.211 238.345 568.319 238.26 568.44 238.2C568.672 238.107 568.92 238.059 569.17 238.06C569.432 238.069 569.69 238.126 569.93 238.23C570.058 238.273 570.169 238.358 570.244 238.469C570.32 238.581 570.357 238.715 570.35 238.85L569.96 245.28L576.56 244.89C576.689 244.856 576.824 244.865 576.947 244.916C577.07 244.967 577.173 245.056 577.24 245.17C577.356 245.417 577.414 245.687 577.41 245.96C577.407 246.345 577.339 246.727 577.21 247.09C577.08 247.46 576.92 247.65 576.73 247.65L570.41 247.48V264.63C570.398 265.673 570.641 266.703 571.12 267.63C571.365 268.084 571.738 268.456 572.194 268.698C572.65 268.94 573.167 269.042 573.68 268.99C574.152 268.986 574.624 268.946 575.09 268.87C575.677 268.781 576.249 268.613 576.79 268.37C576.934 268.291 577.085 268.224 577.24 268.17C577.383 268.111 577.536 268.081 577.69 268.08C577.826 268.075 577.961 268.107 578.081 268.172C578.2 268.237 578.3 268.333 578.37 268.45C578.518 268.694 578.648 268.948 578.76 269.21C578.821 269.353 578.826 269.513 578.774 269.659C578.722 269.806 578.617 269.927 578.48 270C577.499 270.671 576.41 271.168 575.26 271.47C574.189 271.699 573.096 271.81 572 271.8Z" fill="black"/>
<path d="M587.37 271.51C586.901 271.522 586.435 271.44 585.998 271.268C585.562 271.096 585.165 270.838 584.83 270.51C584.496 270.173 584.235 269.771 584.063 269.329C583.891 268.887 583.812 268.414 583.83 267.94C583.82 267.48 583.904 267.024 584.076 266.598C584.248 266.171 584.504 265.784 584.83 265.46C585.529 264.804 586.451 264.439 587.41 264.439C588.368 264.439 589.291 264.804 589.99 265.46C590.319 265.781 590.579 266.168 590.751 266.595C590.923 267.022 591.004 267.48 590.99 267.94C591.013 268.415 590.936 268.889 590.764 269.332C590.592 269.774 590.328 270.176 589.99 270.51C589.641 270.842 589.23 271.101 588.78 271.272C588.33 271.444 587.851 271.525 587.37 271.51Z" fill="black"/>
</svg>
