<svg width="350" height="200" viewBox="0 0 306 182" fill="none" xmlns="http://www.w3.org/2000/svg">
<path d="M33.5601 75.54V19.54C33.5601 10.78 35.1401 8.1 39.4001 8.1C43.0501 8.1 45.4801 11.27 45.4801 16.87C45.4801 18.57 45.3601 19.54 45.8501 19.54C46.3401 19.54 46.2101 18.93 46.4601 18.32C47.3101 16.13 49.9901 8.1 57.2901 8.1C57.9962 8.04954 58.705 8.14961 59.3696 8.39358C60.0341 8.63755 60.6393 9.01986 61.1451 9.51522C61.6508 10.0106 62.0456 10.6077 62.3033 11.2671C62.5611 11.9264 62.6759 12.633 62.6401 13.34C62.6401 16.5 61.4201 20.03 58.1401 20.03C51.5701 20.03 46.58 33.41 46.58 43.51V76.61C46.58 81.48 42.5801 83.3 39.0301 83.3C35.0001 83.32 33.5601 80.4 33.5601 75.54ZM37.0001 10.07C36.2701 10.07 35.1701 12.26 35.1701 13.96C35.1701 15.66 35.66 16.52 36.0201 16.52C36.7501 16.52 36.7501 13.84 36.8701 13.23C37.0901 12 38.1801 10.07 37.0001 10.07ZM35.7801 73.47C35.4101 73.47 35.1701 74.32 35.1701 75.54C35.1701 78.46 36.1701 81.13 37.2401 81.13C37.6001 81.13 38.0901 81.13 38.0901 80.28C38.0901 79.79 37.2401 78.82 36.8701 77.28C36.3601 75.29 36.2401 73.47 35.7501 73.47H35.7801Z" fill="#895738"/>
<path d="M60.9299 47.06C60.9299 29.17 65.9299 7.51001 83.0799 7.51001C100.23 7.51001 105 26.38 105 46C105 65.62 100.14 84.2 83.0999 84.2C66.0599 84.2 60.9299 65 60.9299 47.06ZM66.6499 25.4C65.9199 25.4 65.4399 26.5 65.4399 27.47C65.4399 28.81 66.1699 29.17 66.6499 29.17C66.8999 29.17 67.7499 28.57 67.7499 27.23C67.7499 25.65 67.3799 25.4 66.6499 25.4ZM74.2 15.06C75.2 14.21 73.9499 13.11 73.5899 13.11C71.7599 13.11 67.2599 20.54 67.2599 23.58C67.2599 24.31 67.3799 24.58 67.8699 24.58C68.1099 24.58 68.72 23.73 69.45 21.9C70.5454 19.3172 72.1625 16.9886 74.2 15.06ZM92.6899 45.84C92.6899 38.84 90.8699 15.06 83.0799 15.06C75.2899 15.06 73.8299 39.4 73.8299 45.97C73.8299 56.19 75.4099 76.51 83.0799 76.51C91.1099 76.51 92.6899 56.07 92.6899 45.84Z" fill="#895738"/>
<path d="M112.16 58.26V37.33H110.82C108.39 37.33 107.05 35.38 107.05 32.58C107.05 29.78 107.9 28.08 110.82 28.08H112.16V16.15C112.16 10.07 114.35 8.15002 118 8.15002C121.65 8.15002 124.69 10.46 124.69 16.55V28.11H128.46C131.38 28.11 132.46 29.57 132.46 31.88C132.46 35.05 131.46 37.36 128.93 37.36H124.67V60.2C124.67 69.08 124.91 72.49 126.62 72.49H127.62L129.57 72.13C132.97 72.13 134.07 74.56 134.07 77.73C134.07 80.16 133.22 83.32 124.58 83.32C112.16 83.32 112.16 70.91 112.16 58.26ZM109.6 29.54C108.75 29.54 108.14 31 108.14 32.7C108.14 33.8 108.51 35.38 109.36 35.38C110.21 35.38 109.48 33.19 109.48 31.73C109.48 30.88 109.85 29.54 109.6 29.54ZM116.17 9.83002C114.59 9.83002 113.62 13.23 113.62 14.57C113.62 16.4 113.86 17.13 114.23 17.13C114.83 17.13 114.96 14.69 115.32 13.6C115.93 11.9 117.51 9.83002 116.17 9.83002ZM116.66 71.15C116.54 69.82 115.66 69.08 115.2 69.08C114.2 69.08 114.35 70.91 114.35 71.76C114.35 73.1 116.05 78.58 117.76 78.58C118.24 78.58 118.85 77.73 118.85 77.24C118.85 76.75 116.78 73.47 116.66 71.15Z" fill="#895738"/>
<path d="M167.4 72.13V54.36C167.4 53.15 167.52 50.71 165.81 51.2L152.81 54.97C151.34 55.34 150.62 55.34 150.62 56.92V70.55C150.62 74.55 149.76 83.32 144.29 83.32C137.47 83.32 136.99 75.66 136.99 70.55V17.37C136.99 13.37 139.42 8.85001 143.92 8.85001C148.42 8.85001 150.62 13.6 150.62 17.61V42.07C150.62 43.17 150.74 44.87 152.2 44.51L166.07 40.86C167.53 40.49 167.41 39.64 167.41 38.54V17.61C167.41 14.08 168.26 8.37 172.88 8.37C178.24 8.37 181.04 13.11 181.04 17.98V72.25C181.04 76.63 178.85 83.32 173.49 83.32C167.88 83.32 167.4 76.26 167.4 72.13ZM140.51 72.86C140.51 72.25 140.51 70.79 139.65 70.79C139.05 70.79 138.92 72.37 138.92 72.86C138.92 74.32 139.41 80.04 141.36 80.04L142.09 79.67C141.72 77.6 140.51 77.24 140.51 72.86ZM172.02 80.16C170.881 78.3031 170.253 76.1779 170.2 74L169.95 73.52C169.22 73.52 169.1 75.83 169.1 76.31C169.1 78.14 169.59 81.31 172.02 81.31C172.116 81.303 172.206 81.2618 172.274 81.1939C172.342 81.1259 172.383 81.0358 172.39 80.94C172.39 80.52 172.14 80.4 172 80.16H172.02ZM173.02 10.68C173.02 10.43 172.78 10.31 172.54 10.31C170.54 10.31 169.37 13.36 169.37 14.94C169.37 15.3 169.5 16.15 169.98 16.15C171.05 16.15 173 11.65 173 10.68H173.02Z" fill="#895738"/>
<path d="M22.3301 17.37C25.8601 17.37 25.0101 20.78 27.9301 20.78C30.8501 20.78 33.0001 16.89 33.0001 14C33.0001 11.11 29.2301 6.57996 22.2901 6.57996C10.8601 6.57996 5.2901 14.12 5.2901 28.58V34.42H3.34009C1.64009 34.42 0.340088 35.76 0.340088 39.28C0.340088 42.8 1.68009 45.37 3.34009 45.37H5.2901V160.25C5.2901 168.16 5.65009 174.98 10.4001 174.98H10.6401C14.4201 174.98 18.5501 172.66 18.5501 161.71V45.36H25.8501C28.5301 45.36 29.3801 41.83 29.3801 39.52C29.3801 37.45 28.7701 34.41 25.9801 34.41H18.4301V29.17C18.4401 18.59 20.2701 17.37 22.3301 17.37ZM15.7601 11.37C12.7601 14.29 10.1701 17.94 9.56009 22.44C9.44009 22.93 9.56009 25.97 8.56009 25.97C7.83009 25.97 7.83008 24.27 7.83008 23.54C7.83008 18.43 11.8301 10.39 15.3801 10.39C15.6401 10.43 16.1301 11.17 15.7601 11.41V11.37Z" fill="#895738"/>
<path d="M42.6801 114.32C37.9301 114.32 36.6001 119.43 36.6001 122.47V169.87C36.6001 172.3 38.7901 174.25 42.6801 174.25C46.5701 174.25 49.4901 172.42 49.4901 169.87V121.87C49.4901 118.7 47.4301 114.32 42.6801 114.32ZM39.7601 119.55C39.1501 121.62 39.7601 126.12 38.7601 126.12C38.0301 126.12 37.6601 124.42 37.6601 122.96C37.6601 121.5 38.2701 117.36 39.9701 117.36C40.4901 117.36 39.8801 119 39.7601 119.55Z" fill="#895738"/>
<path d="M56.28 160V105.26C56.28 101.73 57.98 98.56 62.73 98.56C63.5627 98.5533 64.3883 98.7126 65.1588 99.0285C65.9292 99.3443 66.629 99.8105 67.2174 100.4C67.8057 100.989 68.2708 101.69 68.5854 102.461C68.9001 103.231 69.058 104.057 69.05 104.89V157.09C69.05 160.38 69.17 162.32 70.64 162.32H72C74.44 162.32 75.78 165 75.78 168.04C75.78 172.18 73.71 173.76 70.42 173.76H65C56.76 173.76 56.28 168 56.28 160ZM61.14 103.18C62 101.72 62.85 99.89 61.51 99.89C59.68 99.89 57.74 102.33 57.74 106.71C57.74 109.14 58.34 110.11 58.74 110.11C59.56 110.12 59.93 105.26 61.14 103.19V103.18Z" fill="#895738"/>
<path d="M82.7999 148.7V127.77H81.4599C79.0299 127.77 77.6899 125.82 77.6899 123.02C77.6899 120.22 78.5399 118.52 81.4599 118.52H82.7999V106.59C82.7999 100.51 84.99 98.59 88.64 98.59C92.29 98.59 95.3299 100.9 95.3299 106.99V118.55H99.1099C102.03 118.55 103.11 120.01 103.11 122.32C103.11 125.48 102.11 127.8 99.5799 127.8H95.3199V150.67C95.3199 159.56 95.5699 162.96 97.2699 162.96H98.2699L100.22 162.6C103.63 162.6 104.72 165.03 104.72 168.2C104.72 170.63 103.87 173.79 95.2299 173.79C82.7999 173.76 82.7999 161.35 82.7999 148.7ZM80.2399 120C79.3899 120 78.7799 121.46 78.7799 123.16C78.7799 124.26 79.1499 125.84 79.9999 125.84C80.8499 125.84 80.1199 123.65 80.1199 122.19C80.1199 121.32 80.4899 120 80.2399 120ZM86.8099 100.29C85.2299 100.29 84.2599 103.69 84.2599 105.03C84.2599 106.86 84.4999 107.59 84.8699 107.59C85.4799 107.59 85.5999 105.15 85.9599 104.06C86.5699 102.34 88.1499 100.27 86.8099 100.27V100.29ZM87.2999 161.61C87.1799 160.28 86.2999 159.55 85.8399 159.55C84.8399 159.55 84.9899 161.37 84.9899 162.22C84.9899 163.56 86.6899 169.04 88.3999 169.04C88.8799 169.04 89.4899 168.19 89.4899 167.7C89.4899 167.21 87.4199 163.91 87.2999 161.59V161.61Z" fill="#895738"/>
<path d="M107.13 138.23C107.13 114.87 118.08 97.95 133.13 97.95C144.2 97.95 151.99 106.95 151.38 119.01C150.65 133.12 139.09 146.14 124.38 146.14C122.8 146.14 122.31 146.51 122.31 147.84C122.31 158.19 126.31 163.05 132.05 163.05C136.18 163.05 139.47 159.53 139.47 154.9C139.47 151.01 141.78 148.45 145.07 148.45C148.72 148.45 151.15 151.74 151.15 156.85C151.15 166.7 142.15 174.98 131.32 174.98C116.87 175 107.13 160.26 107.13 138.23ZM112.73 119.61C112.85 120.22 112.97 120.71 113.22 120.61C114.07 120.61 114.8 118.61 114.55 117.61C114.43 117.24 114.31 116.88 113.95 117C113.22 117.06 112.61 118.4 112.73 119.61ZM126.84 104C127.7 103.88 128.55 103.39 128.43 102.9C128.31 102.41 127.7 101.81 126.84 101.9C121.37 102.27 114.68 111.51 114.92 115.16C115.04 115.77 115.41 115.77 115.53 115.65C116.62 115.72 122 104.52 126.84 104ZM123.68 135.88C132.08 135.88 139.74 126.75 139.74 118.48C139.74 113.25 136.94 109.48 133.17 109.48C124.9 109.48 120.27 132.85 121.98 135.4C122.22 135.8 122.83 135.92 123.68 135.92V135.88Z" fill="#895738"/>
<path d="M155.19 166V110C155.19 101.24 156.77 98.56 161.03 98.56C164.68 98.56 167.12 101.73 167.12 107.32C167.12 109.03 166.99 110 167.48 110C167.97 110 167.85 109.39 168.09 108.78C168.94 106.59 171.62 98.56 178.92 98.56C179.625 98.5097 180.333 98.6095 180.997 98.8529C181.661 99.0963 182.265 99.4777 182.771 99.972C183.277 100.466 183.672 101.062 183.93 101.72C184.188 102.378 184.304 103.084 184.27 103.79C184.27 106.96 183.06 110.49 179.77 110.49C173.2 110.49 168.21 123.87 168.21 133.97V167.07C168.21 171.94 164.21 173.76 160.67 173.76C156.65 173.76 155.19 170.84 155.19 166ZM158.6 100.54C157.87 100.54 156.77 102.73 156.77 104.43C156.77 106.13 157.26 106.99 157.63 106.99C158.36 106.99 158.36 104.31 158.48 103.7C158.72 102.46 159.82 100.51 158.6 100.51V100.54ZM157.38 163.94C157.02 163.94 156.77 164.79 156.77 166C156.77 168.93 157.77 171.6 158.84 171.6C159.21 171.6 159.69 171.6 159.69 170.75C159.69 170.26 158.84 169.29 158.48 167.75C158 165.73 157.87 163.91 157.38 163.91V163.94Z" fill="#895738"/>
<path d="M43.3601 107.4C43.005 106.885 42.6908 106.344 42.4201 105.78C42.1782 105.259 41.8904 104.76 41.5601 104.29C41.0489 103.614 40.3681 103.085 39.5867 102.756C38.8052 102.428 37.9508 102.312 37.1101 102.42C36.9491 102.44 36.797 102.505 36.6714 102.607C36.5457 102.71 36.4517 102.846 36.4001 103C35.7101 105.25 37.0001 108 39.5601 109.38C41.3174 110.407 43.3252 110.926 45.3601 110.88C46.2685 110.856 47.1546 110.593 47.9301 110.12C47.9785 110.086 48.0151 110.039 48.0347 109.983C48.0543 109.928 48.0559 109.867 48.0393 109.811C48.0227 109.754 47.9887 109.705 47.9422 109.668C47.8956 109.632 47.8389 109.612 47.7801 109.61C47.2166 109.602 46.6573 109.511 46.1201 109.34C45.0156 109.007 44.0478 108.326 43.3601 107.4Z" fill="#5E3023"/>
<path d="M37.7599 101C37.7148 101.04 37.6825 101.093 37.6669 101.151C37.6514 101.21 37.6533 101.272 37.6724 101.329C37.6915 101.387 37.7271 101.437 37.7746 101.475C37.8221 101.512 37.8796 101.535 37.9399 101.54C38.7784 101.563 39.6009 101.776 40.3455 102.162C41.0902 102.548 41.7378 103.098 42.2399 103.77C42.5929 104.282 42.9071 104.821 43.1799 105.38C43.4218 105.904 43.7096 106.406 44.0399 106.88C44.6174 107.666 45.4355 108.241 46.3699 108.52C47.1527 108.763 47.9819 108.818 48.7899 108.68C48.8901 108.663 48.9795 108.607 49.0393 108.525C49.0991 108.443 49.1244 108.341 49.1099 108.24C48.931 106.714 48.4032 105.251 47.5673 103.962C46.7314 102.674 45.61 101.595 44.2899 100.81C43.2995 100.207 42.1557 99.9046 40.9968 99.9383C39.8379 99.972 38.7137 100.341 37.7599 101Z" fill="#5E3023"/>
<path d="M211 58.2C211.942 59.1505 212.944 60.039 214 60.86C213.36 60.86 212.73 60.91 212.09 60.98C206.81 61.58 201.91 64.19 197.68 67.56C187.58 75.56 188.22 87.19 193.84 97.68C194.96 99.77 198.67 98.63 197.9 96.09C196.62 91.88 194.7 87.69 194.66 83.16C194.6 77.23 198.3 73.25 202.76 70.1C208.69 65.92 215.13 65.1 221.76 65.22C239.31 71.8 260.82 60.22 264.41 38.68C264.84 36.14 260.67 35.41 260.13 37.96C255.42 60.07 230.39 70.75 214.06 55.34C197.73 39.93 207.12 10.96 228.52 6.18998C238.6 3.93998 249.05 6.39997 258.52 9.64997C267.99 12.9 276.85 17.65 284.01 24.86C298.23 39.12 299.69 62.35 288.34 79.81C282.363 88.8189 273.741 95.7538 263.66 99.66C251.86 104.25 239.13 103.27 226.93 105.24C223.93 105.73 223.64 110.81 226.57 111.52C229.686 112.271 232.85 112.806 236.04 113.12C242.43 115.97 248.37 119.85 252.61 125.56C259.47 134.8 259.84 149.11 253.33 159.09C246.64 169.33 235.26 172.41 224.41 169.38C212 165.91 206.58 154.38 203.67 142.21C203.578 141.747 203.318 141.334 202.94 141.05C204.88 135.05 205.7 128.54 206.94 122.46C207.005 122.26 206.988 122.042 206.892 121.854C206.796 121.667 206.63 121.525 206.43 121.46C206.23 121.395 206.012 121.412 205.824 121.508C205.637 121.603 205.495 121.77 205.43 121.97C203.25 128.45 201.43 135.17 198.93 141.54C196.25 148.54 190.8 153.54 185.49 158.39C183.44 160.26 186.19 163.46 188.23 161.58C192.87 157.27 197.5 152.69 200.48 146.95C202.61 160.17 209.12 173.5 221.38 178.81C234.86 184.64 251.08 178.64 260.08 166.69C269.57 154.09 269.95 137.69 261.08 125.26C257.409 120.247 252.614 116.164 247.08 113.34C266.08 112.21 284.49 103.26 296.08 86.04C310.61 64.51 308.91 33.82 290.25 16.67C281.25 8.39999 269.25 3.98997 257.4 1.89997C245.89 -0.100028 232.69 -0.810017 221.59 4.37998C201.33 13.8 195.41 42.46 211 58.2Z" fill="#5E3023"/>
</svg>
