<svg width="591" height="43" viewBox="0 0 591 43" fill="none" xmlns="http://www.w3.org/2000/svg">
<path d="M1.71009 41.9999C1.56142 42.011 1.4127 41.9792 1.28155 41.9083C1.1504 41.8374 1.04231 41.7303 0.970086 41.5999C0.82307 41.3446 0.747104 41.0546 0.750084 40.76C0.790084 40.0933 0.940081 39.7333 1.20008 39.6799C1.52692 39.5983 1.86331 39.5613 2.20008 39.57C3.09692 39.6597 3.99662 39.4295 4.74009 38.9199C5.22646 38.4982 5.5545 37.9232 5.67008 37.2899C5.80341 36.6114 5.87039 35.9215 5.87008 35.2299V12.83C5.87039 12.1384 5.80341 11.4485 5.67008 10.77C5.55224 10.1375 5.2246 9.56322 4.74009 9.13996C3.99449 8.63513 3.09652 8.40531 2.20008 8.48993C1.86331 8.49859 1.52692 8.4616 1.20008 8.37995C0.940081 8.29995 0.790084 7.93993 0.750084 7.29993C0.747104 7.00531 0.82307 6.7153 0.970086 6.45996C1.04412 6.33115 1.15257 6.2255 1.28327 6.15485C1.41397 6.0842 1.56177 6.05132 1.71009 6.05994L5.12008 6.17994C6.19008 6.17994 7.29008 6.17994 8.42008 6.17994H24.7201C25.0897 6.17077 25.4541 6.26799 25.7701 6.45996C25.9241 6.59105 26.0432 6.75838 26.1165 6.9469C26.1898 7.13543 26.2151 7.33919 26.1901 7.53992L26.3601 15.4299C26.3637 15.609 26.3144 15.7853 26.2184 15.9365C26.1223 16.0877 25.9838 16.2072 25.8201 16.28C25.5155 16.4556 25.1716 16.5518 24.8201 16.5599C24.4195 16.565 24.023 16.4796 23.6601 16.3099C23.499 16.2443 23.3559 16.1411 23.2428 16.0089C23.1297 15.8767 23.0499 15.7193 23.0101 15.5499C22.8479 14.1625 22.5566 12.7933 22.1401 11.46C21.8738 10.5546 21.319 9.76098 20.5601 9.19995C19.6489 8.67577 18.6109 8.4128 17.5601 8.43995H11.4101V23.1099H21.5101C21.6511 23.1208 21.7869 23.168 21.9043 23.2468C22.0217 23.3257 22.1167 23.4335 22.1801 23.5599C22.3301 23.8145 22.4095 24.1045 22.4101 24.4C22.4078 24.6701 22.328 24.9338 22.1801 25.1599C22.1145 25.2783 22.0168 25.3759 21.8983 25.4413C21.7798 25.5068 21.6452 25.5375 21.5101 25.53H11.4101V35.1799C11.4444 35.8707 11.5212 36.5586 11.6401 37.2399C11.7391 37.8791 12.0702 38.4595 12.5701 38.8699C13.3047 39.3742 14.1931 39.6043 15.0801 39.52C15.4168 39.5126 15.753 39.5496 16.0801 39.6299C16.3401 39.7099 16.4901 40.07 16.5301 40.71C16.5295 41.0054 16.4501 41.2954 16.3001 41.5499C16.2205 41.6852 16.1038 41.7948 15.9637 41.8657C15.8237 41.9366 15.6662 41.9659 15.5101 41.95C13.1001 41.83 10.7701 41.78 8.51008 41.78C7.38341 41.78 6.27341 41.78 5.18008 41.78C4.06008 41.88 2.91009 41.9299 1.71009 41.9999Z" fill="#5E3023"/>
<path d="M30.4201 41.9999C30.2894 41.9976 30.1614 41.9626 30.0478 41.8979C29.9342 41.8333 29.8387 41.7411 29.77 41.6299C29.6089 41.4092 29.5214 41.1432 29.52 40.8699C29.59 40.3099 29.74 39.9899 29.97 39.9399C30.2651 39.8724 30.5675 39.8422 30.87 39.8499C31.627 39.9356 32.3896 39.7477 33.02 39.3199C33.4046 38.936 33.6328 38.4227 33.66 37.8799C33.72 37.2799 33.75 36.6599 33.75 36.0199V23.1099C33.7524 22.4788 33.7224 21.8479 33.66 21.2199C33.6283 20.687 33.4003 20.1847 33.02 19.8099C32.3913 19.3779 31.6283 19.1862 30.87 19.2699C30.5543 19.277 30.2397 19.2297 29.94 19.1299C29.66 19.0399 29.52 18.7099 29.52 18.1299C29.5188 17.8812 29.6103 17.6408 29.7767 17.4559C29.9432 17.271 30.1725 17.1548 30.4201 17.1299C31.768 16.9467 33.1037 16.6829 34.4201 16.34C35.3401 16.08 36.04 15.8499 36.53 15.6599C36.9481 15.4946 37.3846 15.3805 37.83 15.3199C38.0958 15.2781 38.3675 15.3389 38.59 15.4899C38.7091 15.6069 38.7992 15.7501 38.853 15.9081C38.9068 16.0661 38.9229 16.2346 38.9 16.3999V35.9999C38.9 36.6666 38.93 37.2866 38.99 37.8599C39.0194 38.4083 39.2594 38.9242 39.66 39.2999C40.3025 39.7257 41.0738 39.9133 41.84 39.8299C42.1326 39.8253 42.4246 39.8555 42.71 39.9199C42.95 39.9199 43.1 40.2899 43.13 40.8499C43.1302 41.119 43.0539 41.3825 42.91 41.6099C42.8403 41.7268 42.7403 41.8229 42.6207 41.888C42.5011 41.9531 42.3662 41.9848 42.2301 41.9799C41.1401 41.8999 40.1301 41.8499 39.2301 41.84C38.3301 41.83 37.34 41.84 36.33 41.84C35.32 41.84 34.3301 41.84 33.4501 41.84C32.5701 41.84 31.5101 41.9299 30.4201 41.9999ZM36 8.99993C35.021 9.01952 34.0721 8.66141 33.35 7.99993C33.0059 7.69049 32.7322 7.31071 32.5476 6.88628C32.363 6.46185 32.2717 6.00267 32.28 5.5399C32.2983 5.07943 32.4257 4.62992 32.6517 4.22832C32.8778 3.82671 33.1959 3.4845 33.58 3.22991C34.4118 2.56805 35.4472 2.21469 36.5101 2.22991C36.9462 2.21785 37.3797 2.30109 37.7804 2.4738C38.1811 2.64651 38.5393 2.90454 38.83 3.22991C39.4411 3.92 39.7634 4.81873 39.7301 5.73992C39.732 6.17986 39.6371 6.61482 39.4522 7.01402C39.2673 7.41322 38.9969 7.76688 38.66 8.04991C37.9349 8.71389 36.9831 9.07527 36 9.05992V8.99993Z" fill="#5E3023"/>
<path d="M46.5499 41.9999C46.4204 41.9988 46.2933 41.9641 46.1812 41.8993C46.069 41.8344 45.9756 41.7416 45.9099 41.6299C45.7464 41.4097 45.6555 41.1441 45.6499 40.8699C45.6499 40.3099 45.8299 39.9899 46.0699 39.9399C46.3587 39.8756 46.6541 39.8453 46.9499 39.8499C47.7131 39.9334 48.4812 39.7458 49.1199 39.3199C49.5234 38.9453 49.7669 38.4295 49.7999 37.8799C49.8499 37.2799 49.8799 36.6599 49.8799 36.0199V8.49991C49.8799 7.81991 49.8799 7.1899 49.7999 6.6099C49.76 6.07698 49.5292 5.57637 49.1499 5.19993C48.5216 4.76704 47.7582 4.57527 46.9999 4.65989C46.6843 4.66542 46.3699 4.61814 46.0699 4.51993C45.7899 4.43327 45.6499 4.09993 45.6499 3.51993C45.6487 3.27117 45.7402 3.03083 45.9066 2.84592C46.073 2.66101 46.3024 2.54481 46.5499 2.51993C47.8978 2.33667 49.2335 2.07282 50.5499 1.7299C51.4699 1.4699 52.1799 1.2399 52.6699 1.0499C53.083 0.880133 53.5168 0.765841 53.9599 0.709937C54.1091 0.672456 54.2655 0.674259 54.4138 0.715247C54.5621 0.756234 54.6973 0.834969 54.8061 0.943762C54.9149 1.05256 54.9936 1.18774 55.0346 1.33604C55.0755 1.48433 55.0774 1.64067 55.0399 1.78989V35.9999C55.0399 36.6399 55.0399 37.2599 55.1199 37.8599C55.1529 38.4095 55.3964 38.9253 55.7999 39.2999C56.4386 39.7258 57.2068 39.9135 57.9699 39.8299C58.2625 39.8248 58.5546 39.8549 58.8399 39.9199C59.0899 39.9199 59.2299 40.2899 59.2699 40.8499C59.2665 41.1199 59.1868 41.3834 59.0399 41.6099C58.9701 41.7268 58.8702 41.8229 58.7506 41.888C58.6309 41.9531 58.496 41.9848 58.3599 41.9799C57.2699 41.8999 56.2699 41.8499 55.3599 41.8399C54.4499 41.8299 53.4699 41.8399 52.4499 41.8399C51.4299 41.8399 50.4499 41.8399 49.5699 41.8399C48.6899 41.8399 47.6399 41.9299 46.5499 41.9999Z" fill="#5E3023"/>
<path d="M72.39 42.8001C71.2647 42.7981 70.1589 42.5053 69.18 41.9501C68.1148 41.3421 67.2443 40.4438 66.67 39.3601C65.963 38.0041 65.6185 36.4884 65.67 34.9601V18.3701L62.4 18.4801C62.2814 18.4872 62.163 18.4622 62.0574 18.4076C61.9517 18.353 61.8628 18.271 61.8 18.1701C61.67 17.9602 61.6039 17.7169 61.61 17.47C61.61 16.72 61.87 16.2801 62.4 16.1701C63.4464 16.06 64.4446 15.6732 65.2918 15.0492C66.139 14.4252 66.8046 13.5867 67.22 12.6201C67.61 11.7501 67.98 10.8101 68.32 9.80006C68.36 9.67074 68.4258 9.5509 68.5135 9.44776C68.6011 9.34463 68.7088 9.26037 68.83 9.20008C69.062 9.1068 69.3099 9.05925 69.56 9.06007C69.8217 9.06886 70.0795 9.1265 70.32 9.23005C70.4481 9.27347 70.5584 9.35756 70.6342 9.46949C70.71 9.58142 70.7472 9.71504 70.74 9.85005L70.35 16.2801L76.95 15.8901C77.0784 15.8564 77.2142 15.8656 77.337 15.9161C77.4597 15.9666 77.5626 16.0558 77.63 16.1701C77.7458 16.4171 77.8039 16.6873 77.8 16.9601C77.7969 17.3453 77.7293 17.7272 77.6 18.0901C77.47 18.4601 77.31 18.6501 77.12 18.6501L70.8 18.4801V35.6301C70.7875 36.6731 71.0313 37.7033 71.51 38.6301C71.7545 39.0844 72.1282 39.4561 72.5838 39.6981C73.0395 39.9402 73.5567 40.0418 74.07 39.9901C74.5424 39.9857 75.0137 39.9456 75.48 39.8701C76.0667 39.7811 76.6386 39.6129 77.18 39.3701C77.3243 39.2912 77.4748 39.2243 77.63 39.1701C77.7728 39.1114 77.9256 39.0809 78.08 39.0801C78.2161 39.0752 78.351 39.1069 78.4707 39.172C78.5903 39.2371 78.6902 39.3331 78.76 39.4501C78.9077 39.6939 79.038 39.9479 79.15 40.2101C79.2107 40.3529 79.2156 40.5133 79.1637 40.6596C79.1119 40.8058 79.0071 40.9273 78.87 41.0001C77.889 41.6712 76.7997 42.1684 75.65 42.47C74.5787 42.6993 73.4855 42.81 72.39 42.8001Z" fill="#5E3023"/>
<path d="M97.1 42.5101C94.5361 42.5972 92.0004 41.952 89.79 40.6501C87.8575 39.4537 86.3202 37.7147 85.37 35.6501C84.3787 33.5321 83.8764 31.2184 83.9 28.8801C83.8989 27.2343 84.1936 25.6016 84.77 24.0601C85.3578 22.4983 86.2065 21.0477 87.28 19.7701C88.3783 18.4723 89.7423 17.4254 91.28 16.7001C92.9188 15.9218 94.7161 15.535 96.53 15.5701C99.99 15.5701 102.593 16.4634 104.34 18.2501C106.109 20.0893 107.171 22.494 107.34 25.04C107.411 25.5325 107.346 26.035 107.152 26.4933C106.958 26.9515 106.643 27.3481 106.24 27.6401C105.358 28.0865 104.377 28.3 103.39 28.2601H89.65C89.6168 30.2445 89.9247 32.2198 90.56 34.1C91.0873 35.7029 92.0751 37.115 93.4 38.16C94.9084 39.2205 96.7286 39.7451 98.57 39.6501C99.9895 39.6966 101.394 39.3505 102.63 38.6501C103.984 37.7361 105.104 36.5167 105.9 35.0901C106.2 34.7201 106.61 34.7001 107.14 35.0901C107.281 35.157 107.405 35.2546 107.504 35.3757C107.603 35.4968 107.673 35.6383 107.71 35.79C107.75 35.9274 107.76 36.0716 107.739 36.2131C107.718 36.3545 107.667 36.4899 107.59 36.61C106.49 38.3891 104.982 39.8804 103.19 40.9601C101.339 42.0224 99.2333 42.5584 97.1 42.5101ZM89.65 26.16H98.85C99.6105 26.1957 100.365 26.008 101.02 25.6201C101.305 25.4106 101.533 25.1339 101.685 24.8146C101.837 24.4952 101.907 24.1432 101.89 23.79C101.914 22.2473 101.452 20.7361 100.57 19.47C100.104 18.8349 99.4838 18.3285 98.7686 17.9979C98.0533 17.6674 97.2659 17.5236 96.48 17.5801C95.574 17.5691 94.6776 17.7673 93.8607 18.1593C93.0438 18.5513 92.3283 19.1265 91.77 19.8401C90.3956 21.6606 89.6514 23.879 89.65 26.16Z" fill="#5E3023"/>
<path d="M112.67 42C112.539 41.9977 112.411 41.9627 112.298 41.898C112.184 41.8334 112.089 41.7412 112.02 41.63C111.859 41.4093 111.771 41.1433 111.77 40.87C111.84 40.31 111.99 39.99 112.22 39.94C112.515 39.8719 112.817 39.8416 113.12 39.85C113.874 39.9378 114.634 39.7495 115.26 39.32C115.652 38.9399 115.884 38.4251 115.91 37.88C115.97 37.28 116 36.66 116 36.02V23.11C116.002 22.4789 115.972 21.848 115.91 21.22C115.879 20.6847 115.647 20.1809 115.26 19.81C114.636 19.377 113.875 19.1851 113.12 19.27C112.804 19.2771 112.49 19.2297 112.19 19.13C111.91 19.04 111.77 18.71 111.77 18.13C111.769 17.8813 111.86 17.6409 112.027 17.456C112.193 17.2711 112.423 17.1549 112.67 17.13C114.018 16.9457 115.353 16.6819 116.67 16.34C117.375 16.1492 118.069 15.9222 118.75 15.66C119.157 15.494 119.584 15.3798 120.02 15.32C120.286 15.2782 120.557 15.339 120.78 15.49C120.899 15.607 120.989 15.7502 121.043 15.9082C121.097 16.0662 121.113 16.2347 121.09 16.4V19.89H121.26C122.455 18.7189 123.78 17.6888 125.21 16.82C126.322 16.0886 127.611 15.6706 128.94 15.61C129.522 15.5817 130.103 15.7006 130.627 15.9558C131.151 16.211 131.603 16.5942 131.94 17.07C132.612 17.9685 132.98 19.058 132.99 20.18C132.973 21.1617 132.655 22.1145 132.08 22.91C131.787 23.3499 131.383 23.7046 130.909 23.9381C130.435 24.1717 129.907 24.2758 129.38 24.24C128.873 24.2681 128.37 24.1389 127.94 23.87C127.58 23.63 127.38 23.45 127.35 23.33C127.32 23.21 127.52 23.03 127.88 22.66C128.237 22.2786 128.431 21.7725 128.42 21.25C128.448 20.6555 128.256 20.0717 127.88 19.61C127.701 19.4059 127.479 19.2443 127.23 19.137C126.981 19.0298 126.711 18.9795 126.44 18.99C125.547 19.0923 124.7 19.4383 123.99 19.99C122.959 20.6549 122.004 21.4295 121.14 22.3V36C121.14 36.64 121.14 37.26 121.22 37.86C121.257 38.4086 121.5 38.9229 121.9 39.3C122.539 39.7243 123.307 39.9118 124.07 39.83C124.366 39.8255 124.661 39.8557 124.95 39.92C125.19 39.92 125.33 40.29 125.37 40.85C125.37 41.1191 125.294 41.3826 125.15 41.61C125.079 41.7262 124.979 41.8217 124.86 41.8867C124.74 41.9517 124.606 41.9839 124.47 41.98C123.38 41.9 122.37 41.85 121.47 41.84C120.57 41.83 119.58 41.84 118.57 41.84C117.56 41.84 116.57 41.84 115.69 41.84C114.81 41.84 113.76 41.93 112.67 42Z" fill="#5E3023"/>
<path d="M149.84 42C149.684 42.0147 149.527 41.9849 149.387 41.9141C149.247 41.8433 149.13 41.7344 149.05 41.6C148.903 41.3447 148.827 41.0546 148.83 40.76C148.83 40.0934 148.98 39.7333 149.28 39.68C149.607 39.5983 149.943 39.5614 150.28 39.57C151.177 39.6598 152.076 39.4295 152.82 38.92C153.303 38.4952 153.63 37.9216 153.75 37.29C153.88 36.6099 153.964 35.9216 154 35.23V12.83C153.964 12.1384 153.88 11.4501 153.75 10.77C153.628 10.1392 153.301 9.56623 152.82 9.14003C152.074 8.6352 151.176 8.40538 150.28 8.49C149.943 8.49866 149.607 8.46167 149.28 8.38002C149.013 8.30002 148.863 7.94 148.83 7.3C148.827 7.00538 148.903 6.71537 149.05 6.46003C149.132 6.32721 149.249 6.21956 149.389 6.149C149.528 6.07843 149.684 6.04765 149.84 6.06001L153.26 6.18C154.33 6.18 155.43 6.18 156.56 6.18C158.85 6.18 161.2 6.18002 163.61 6.01002C163.761 6.00321 163.911 6.03665 164.044 6.10695C164.178 6.17725 164.29 6.28184 164.37 6.40999C164.535 6.65885 164.622 6.95137 164.62 7.25001C164.58 7.91668 164.43 8.2767 164.17 8.33003C163.843 8.40863 163.507 8.44558 163.17 8.44001C162.283 8.3608 161.397 8.59045 160.66 9.09004C160.163 9.50424 159.829 10.0821 159.72 10.72C159.609 11.4022 159.536 12.0899 159.5 12.78V35.18C159.536 35.8701 159.609 36.5578 159.72 37.24C159.827 37.8788 160.161 38.4576 160.66 38.87C161.395 39.3742 162.283 39.6043 163.17 39.52C163.507 39.5145 163.843 39.5514 164.17 39.63C164.43 39.71 164.58 40.07 164.62 40.71C164.622 41.0087 164.535 41.3011 164.37 41.55C164.292 41.6796 164.18 41.7855 164.046 41.856C163.912 41.9265 163.761 41.959 163.61 41.95C161.2 41.83 158.87 41.78 156.61 41.78C155.483 41.78 154.373 41.78 153.28 41.78C152.19 41.88 151.05 41.93 149.84 42Z" fill="#5E3023"/>
<path d="M177.94 42.8001C176.762 42.8025 175.606 42.4834 174.596 41.8772C173.587 41.271 172.762 40.4007 172.21 39.3601C171.503 38.0041 171.158 36.4884 171.21 34.9601V18.3701L167.94 18.48C167.823 18.4864 167.706 18.461 167.602 18.4064C167.498 18.3519 167.411 18.2702 167.35 18.17C167.216 17.9612 167.147 17.7179 167.15 17.47C167.15 16.72 167.41 16.28 167.94 16.17C168.986 16.0537 169.982 15.6645 170.83 15.0414C171.678 14.4184 172.347 13.5833 172.77 12.6201C173.16 11.7501 173.53 10.8101 173.87 9.80005C173.909 9.67161 173.973 9.5523 174.059 9.44922C174.145 9.34615 174.251 9.26143 174.37 9.20008C174.606 9.10697 174.857 9.05945 175.11 9.06006C175.372 9.06999 175.629 9.12759 175.87 9.23005C175.998 9.27347 176.108 9.35756 176.184 9.46949C176.26 9.58142 176.297 9.71504 176.29 9.85004L175.9 16.2801L182.5 15.8901C182.627 15.8571 182.761 15.8666 182.882 15.9172C183.003 15.9677 183.104 16.0566 183.17 16.17C183.291 16.4155 183.349 16.6868 183.34 16.9601C183.34 17.3447 183.276 17.7267 183.15 18.0901C183.01 18.4601 182.85 18.6501 182.67 18.6501L176.35 18.48V35.6301C176.334 36.6723 176.575 37.7024 177.05 38.6301C177.297 39.0843 177.673 39.4556 178.13 39.6975C178.587 39.9394 179.105 40.0412 179.62 39.9901C180.092 39.9849 180.564 39.9448 181.03 39.8701C181.614 39.7823 182.182 39.614 182.72 39.3701C182.864 39.2912 183.015 39.2243 183.17 39.17C183.313 39.1114 183.466 39.0809 183.62 39.0801C183.756 39.0741 183.892 39.1053 184.011 39.1705C184.131 39.2357 184.231 39.3324 184.3 39.4501C184.447 39.696 184.581 39.9497 184.7 40.2101C184.76 40.3541 184.763 40.5154 184.71 40.6618C184.656 40.8082 184.549 40.929 184.41 41.0001C183.433 41.6726 182.347 42.17 181.2 42.47C180.129 42.6993 179.035 42.81 177.94 42.8001Z" fill="#5E3023"/>
<path d="M193.34 42.5101C192.871 42.5232 192.404 42.4414 191.968 42.2695C191.531 42.0977 191.134 41.8393 190.8 41.5101C190.465 41.1742 190.202 40.7723 190.03 40.33C189.858 39.8876 189.78 39.4143 189.8 38.9401C189.789 38.4803 189.872 38.0231 190.043 37.5966C190.215 37.1701 190.473 36.7834 190.8 36.4601C191.499 35.8041 192.421 35.439 193.38 35.439C194.339 35.439 195.261 35.8041 195.96 36.4601C196.29 36.7812 196.549 37.1676 196.722 37.5946C196.894 38.0216 196.975 38.4799 196.96 38.9401C196.984 39.4147 196.907 39.8891 196.735 40.332C196.563 40.775 196.298 41.1764 195.96 41.5101C195.61 41.8408 195.199 42.0993 194.75 42.2709C194.3 42.4425 193.821 42.5238 193.34 42.5101Z" fill="#5E3023"/>
<path d="M215.62 41.9999C215.471 42.011 215.323 41.9792 215.191 41.9083C215.06 41.8374 214.952 41.7303 214.88 41.5999C214.733 41.3446 214.657 41.0546 214.66 40.76C214.7 40.0933 214.85 39.7333 215.11 39.6799C215.437 39.5983 215.773 39.5613 216.11 39.57C217.007 39.6597 217.907 39.4295 218.65 38.9199C219.136 38.4982 219.464 37.9232 219.58 37.2899C219.713 36.6114 219.78 35.9215 219.78 35.2299V12.83C219.78 12.1384 219.713 11.4485 219.58 10.77C219.462 10.1375 219.134 9.56322 218.65 9.13996C217.904 8.63513 217.006 8.40531 216.11 8.48993C215.773 8.49859 215.437 8.4616 215.11 8.37995C214.85 8.29995 214.7 7.93993 214.66 7.29993C214.657 7.00531 214.733 6.7153 214.88 6.45996C214.954 6.33115 215.062 6.2255 215.193 6.15485C215.324 6.0842 215.472 6.05132 215.62 6.05994L219.03 6.17994C220.1 6.17994 221.2 6.17994 222.33 6.17994H238.63C239 6.16963 239.364 6.26693 239.68 6.45996C239.834 6.59105 239.953 6.75838 240.026 6.9469C240.1 7.13543 240.125 7.33919 240.1 7.53992L240.27 15.4299C240.274 15.609 240.224 15.7853 240.128 15.9365C240.032 16.0877 239.894 16.2072 239.73 16.28C239.426 16.4568 239.082 16.5531 238.73 16.5599C238.329 16.565 237.933 16.4796 237.57 16.3099C237.409 16.2443 237.266 16.1411 237.153 16.0089C237.04 15.8767 236.96 15.7193 236.92 15.5499C236.763 14.1617 236.471 12.792 236.05 11.46C235.784 10.5546 235.229 9.76098 234.47 9.19995C233.559 8.67577 232.521 8.4128 231.47 8.43995H225.32V23.1099H235.42C235.562 23.121 235.699 23.1682 235.818 23.2469C235.937 23.3256 236.034 23.4334 236.1 23.5599C236.247 23.8153 236.323 24.1053 236.32 24.4C236.321 24.6692 236.245 24.933 236.1 25.1599C236.032 25.2784 235.932 25.3757 235.812 25.441C235.692 25.5063 235.556 25.5371 235.42 25.53H225.32V35.1799C225.354 35.8707 225.431 36.5586 225.55 37.2399C225.649 37.8791 225.98 38.4595 226.48 38.8699C227.215 39.3726 228.103 39.6025 228.99 39.52C229.327 39.5126 229.663 39.5496 229.99 39.6299C230.25 39.7099 230.4 40.07 230.44 40.71C230.439 41.0054 230.36 41.2954 230.21 41.5499C230.13 41.6852 230.014 41.7948 229.874 41.8657C229.734 41.9366 229.576 41.9659 229.42 41.95C227.02 41.83 224.68 41.78 222.42 41.78C221.293 41.78 220.183 41.78 219.09 41.78C218 41.88 216.82 41.9299 215.62 41.9999Z" fill="#5E3023"/>
<path d="M244.22 42C244.089 41.9977 243.961 41.9627 243.848 41.898C243.734 41.8334 243.639 41.7412 243.57 41.63C243.409 41.4093 243.321 41.1433 243.32 40.87C243.39 40.31 243.54 39.99 243.77 39.94C244.065 39.8719 244.367 39.8416 244.67 39.85C245.424 39.9378 246.184 39.7495 246.81 39.32C247.202 38.9399 247.434 38.4251 247.46 37.88C247.52 37.28 247.55 36.66 247.55 36.02V23.11C247.552 22.4789 247.522 21.848 247.46 21.22C247.429 20.6847 247.197 20.1809 246.81 19.81C246.186 19.377 245.425 19.1851 244.67 19.27C244.354 19.2771 244.04 19.2297 243.74 19.13C243.46 19.04 243.32 18.71 243.32 18.13C243.319 17.8813 243.41 17.6409 243.577 17.456C243.743 17.2711 243.973 17.1549 244.22 17.13C245.568 16.9457 246.903 16.6819 248.22 16.34C248.925 16.1492 249.619 15.9222 250.3 15.66C250.708 15.494 251.134 15.3798 251.57 15.32C251.836 15.2782 252.107 15.339 252.33 15.49C252.449 15.607 252.539 15.7502 252.593 15.9082C252.647 16.0662 252.663 16.2347 252.64 16.4V19.89H252.81C254.005 18.7189 255.33 17.6888 256.76 16.82C257.872 16.0886 259.161 15.6706 260.49 15.61C261.073 15.5817 261.653 15.7006 262.177 15.9558C262.701 16.211 263.153 16.5942 263.49 17.07C264.144 17.9746 264.495 19.0636 264.49 20.18C264.478 21.1624 264.16 22.1166 263.58 22.91C263.287 23.3499 262.883 23.7046 262.409 23.9381C261.935 24.1717 261.407 24.2758 260.88 24.24C260.374 24.2668 259.871 24.1377 259.44 23.87C259.08 23.63 258.88 23.45 258.85 23.33C258.82 23.21 259.02 23.03 259.38 22.66C259.737 22.2786 259.931 21.7725 259.92 21.25C259.948 20.6555 259.756 20.0717 259.38 19.61C259.207 19.4156 258.994 19.2605 258.756 19.1553C258.518 19.0501 258.26 18.9971 258 19C257.108 19.1038 256.26 19.4496 255.55 20C254.52 20.665 253.564 21.4395 252.7 22.31V36C252.7 36.6667 252.73 37.2867 252.79 37.86C252.819 38.4084 253.059 38.9243 253.46 39.3C254.099 39.7243 254.867 39.9118 255.63 39.83C255.926 39.8255 256.221 39.8557 256.51 39.92C256.75 39.92 256.89 40.29 256.93 40.85C256.93 41.1191 256.854 41.3826 256.71 41.61C256.64 41.7269 256.54 41.823 256.421 41.8881C256.301 41.9532 256.166 41.9849 256.03 41.98C254.94 41.9 253.93 41.85 253.03 41.84C252.13 41.83 251.14 41.84 250.13 41.84C249.12 41.84 248.13 41.84 247.25 41.84C246.37 41.84 245.31 41.93 244.22 42Z" fill="#5E3023"/>
<path d="M280.66 42.51C278.226 42.5646 275.828 41.919 273.75 40.65C271.841 39.4657 270.267 37.8132 269.177 35.8495C268.087 33.8858 267.516 31.6761 267.52 29.43C267.481 27.3914 267.884 25.3685 268.7 23.5C269.437 21.8555 270.502 20.3787 271.83 19.16C273.079 18.0274 274.522 17.1297 276.09 16.51C277.544 15.9275 279.094 15.6222 280.66 15.61C283.094 15.5554 285.492 16.201 287.57 17.47C289.478 18.6544 291.052 20.3069 292.143 22.2705C293.233 24.2342 293.804 26.4439 293.8 28.69C293.839 30.7318 293.426 32.7568 292.59 34.62C291.844 36.267 290.768 37.744 289.43 38.96C288.186 40.0995 286.742 40.9981 285.17 41.61C283.736 42.1895 282.206 42.4948 280.66 42.51ZM280.66 40.43C281.462 40.4712 282.264 40.3469 283.016 40.0647C283.767 39.7826 284.453 39.3487 285.03 38.79C286.168 37.5815 286.968 36.0952 287.35 34.48C287.831 32.588 288.066 30.6421 288.05 28.69C288.071 26.8411 287.825 24.9988 287.32 23.22C286.907 21.6963 286.088 20.3136 284.95 19.22C283.72 18.2171 282.178 17.6761 280.59 17.6907C279.003 17.7053 277.471 18.2746 276.26 19.3C275.114 20.4698 274.315 21.9339 273.95 23.5301C273.482 25.4205 273.253 27.3624 273.27 29.31C273.258 31.1604 273.497 33.0038 273.98 34.79C274.371 36.3419 275.18 37.7566 276.32 38.88C277.507 39.9471 279.066 40.504 280.66 40.43Z" fill="#5E3023"/>
<path d="M308 42.8001C306.823 42.7992 305.668 42.4788 304.659 41.8729C303.65 41.2671 302.824 40.3985 302.27 39.3601C301.569 38.0021 301.224 36.4879 301.27 34.9601V18.3701L298 18.4801C297.881 18.4872 297.763 18.4622 297.657 18.4076C297.552 18.353 297.463 18.271 297.4 18.1701C297.27 17.9602 297.204 17.7169 297.21 17.47C297.21 16.72 297.47 16.2801 298 16.1701C299.046 16.06 300.045 15.6732 300.892 15.0492C301.739 14.4252 302.405 13.5867 302.82 12.6201C303.21 11.7501 303.58 10.8101 303.92 9.80006C303.96 9.67074 304.026 9.5509 304.114 9.44776C304.201 9.34463 304.309 9.26037 304.43 9.20008C304.662 9.1068 304.91 9.05925 305.16 9.06007C305.422 9.06886 305.68 9.1265 305.92 9.23005C306.048 9.27347 306.158 9.35756 306.234 9.46949C306.31 9.58142 306.347 9.71504 306.34 9.85005L305.95 16.2801L312.55 15.8901C312.678 15.8564 312.814 15.8656 312.937 15.9161C313.06 15.9666 313.163 16.0558 313.23 16.1701C313.346 16.4171 313.404 16.6873 313.4 16.9601C313.397 17.3453 313.329 17.7272 313.2 18.0901C313.07 18.4601 312.91 18.6501 312.72 18.6501L306.4 18.4801V35.6301C306.388 36.6731 306.631 37.7033 307.11 38.6301C307.355 39.0844 307.728 39.4561 308.184 39.6981C308.64 39.9402 309.157 40.0418 309.67 39.9901C310.142 39.9857 310.614 39.9456 311.08 39.8701C311.667 39.7811 312.239 39.6129 312.78 39.3701C312.924 39.2912 313.075 39.2243 313.23 39.1701C313.373 39.1114 313.526 39.0809 313.68 39.0801C313.816 39.0752 313.951 39.1069 314.071 39.172C314.19 39.2371 314.29 39.3331 314.36 39.4501C314.504 39.6961 314.634 39.9498 314.75 40.2101C314.811 40.3529 314.816 40.5133 314.764 40.6596C314.712 40.8058 314.607 40.9273 314.47 41.0001C313.489 41.6712 312.4 42.1684 311.25 42.47C310.182 42.6986 309.092 42.8093 308 42.8001Z" fill="#5E3023"/>
<path d="M319.42 42C319.284 42.006 319.148 41.9748 319.029 41.9096C318.909 41.8444 318.809 41.7477 318.74 41.63C318.593 41.4035 318.513 41.14 318.51 40.87C318.51 40.31 318.69 39.99 318.94 39.94C319.225 39.8751 319.517 39.8448 319.81 39.85C320.573 39.9335 321.341 39.7459 321.98 39.32C322.383 38.9454 322.627 38.4296 322.66 37.88C322.72 37.28 322.74 36.66 322.74 36.02V8.50002C322.745 7.86907 322.719 7.23823 322.66 6.61C322.625 6.07592 322.393 5.57378 322.01 5.20003C321.385 4.76784 320.625 4.57602 319.87 4.65999C319.554 4.66707 319.24 4.61976 318.94 4.52004C318.65 4.43004 318.51 4.10004 318.51 3.52004C318.509 3.2697 318.602 3.02806 318.77 2.84291C318.939 2.65776 319.171 2.54256 319.42 2.52004C320.768 2.33736 322.104 2.07351 323.42 1.73C324.14 1.53669 324.848 1.29962 325.54 1.02004C325.95 0.834868 326.391 0.729652 326.84 0.710039C327.107 0.703333 327.371 0.772645 327.6 0.90999C327.8 1.03999 327.91 1.33 327.91 1.79V20H328C328.75 19.29 329.52 18.6 330.31 17.94C331.151 17.2511 332.096 16.7009 333.11 16.31C334.388 15.8349 335.747 15.6141 337.11 15.66C338.231 15.6042 339.352 15.7807 340.401 16.1782C341.451 16.5757 342.407 17.1857 343.21 17.97C343.972 18.7838 344.564 19.7418 344.95 20.7877C345.337 21.8336 345.51 22.9462 345.46 24.06V36.06C345.46 36.7267 345.49 37.3467 345.55 37.92C345.579 38.4684 345.819 38.9843 346.22 39.36C346.842 39.7808 347.593 39.9685 348.34 39.89C348.643 39.8823 348.945 39.9125 349.24 39.98C349.47 39.98 349.6 40.35 349.64 40.91C349.638 41.176 349.569 41.4372 349.44 41.67C349.379 41.7876 349.285 41.8851 349.17 41.9507C349.054 42.0163 348.922 42.0473 348.79 42.04C347.7 41.96 346.68 41.91 345.79 41.9C344.9 41.89 343.89 41.9 342.92 41.9C341.95 41.9 340.92 41.9 340.04 41.9C339.16 41.9 338.14 41.96 337.04 42.04C336.904 42.0449 336.769 42.0132 336.649 41.9481C336.53 41.883 336.43 41.7869 336.36 41.67C336.216 41.4426 336.14 41.179 336.14 40.91C336.14 40.35 336.31 40.03 336.53 39.98C336.825 39.913 337.127 39.8828 337.43 39.89C338.196 39.9734 338.968 39.7858 339.61 39.36C340.009 38.9848 340.242 38.4671 340.26 37.92C340.26 37.32 340.31 36.7 340.31 36.06V24.06C340.379 23.2925 340.261 22.5198 339.967 21.8076C339.673 21.0955 339.21 20.465 338.62 19.97C337.571 19.1515 336.28 18.7048 334.95 18.7C333.785 18.6749 332.629 18.9143 331.57 19.4C330.695 19.7996 329.894 20.3439 329.2 21.01C328.707 21.4686 328.288 22.0018 327.96 22.59V36C327.96 36.64 327.96 37.26 328.04 37.86C328.073 38.4096 328.317 38.9254 328.72 39.3C329.338 39.7216 330.086 39.9096 330.83 39.83C331.136 39.8224 331.442 39.8526 331.74 39.92C331.96 39.92 332.09 40.29 332.13 40.85C332.133 41.1167 332.063 41.3791 331.93 41.61C331.87 41.7268 331.778 41.824 331.665 41.8896C331.551 41.9552 331.421 41.9866 331.29 41.98C330.19 41.9 329.18 41.85 328.24 41.84C327.3 41.83 326.34 41.84 325.36 41.84C324.38 41.84 323.36 41.84 322.49 41.84C321.62 41.84 320.51 41.93 319.42 42Z" fill="#5E3023"/>
<path d="M366.41 42C366.254 42.0159 366.096 41.9867 365.956 41.9158C365.816 41.8449 365.7 41.7353 365.62 41.6C365.465 41.3475 365.385 41.0562 365.39 40.76C365.43 40.0934 365.58 39.7333 365.84 39.68C366.167 39.5983 366.503 39.5614 366.84 39.57C367.737 39.6598 368.637 39.4295 369.38 38.92C369.866 38.4983 370.194 37.9233 370.31 37.29C370.446 36.6107 370.529 35.922 370.56 35.23V12.83C370.529 12.138 370.446 11.4494 370.31 10.77C370.192 10.1376 369.865 9.56329 369.38 9.14003C368.634 8.6352 367.737 8.40538 366.84 8.49C366.503 8.49866 366.167 8.46167 365.84 8.38002C365.58 8.30002 365.43 7.94 365.39 7.3C365.385 7.00384 365.465 6.71252 365.62 6.46003C365.701 6.32641 365.818 6.21815 365.958 6.14747C366.098 6.0768 366.254 6.0465 366.41 6.06001L369.82 6.18C370.89 6.18 371.99 6.18 373.12 6.18C375.41 6.18 377.76 6.18002 380.12 6.01002C380.271 6.00321 380.421 6.03665 380.554 6.10695C380.688 6.17725 380.8 6.28184 380.88 6.40999C381.048 6.65799 381.139 6.95042 381.14 7.25001C381.14 7.89001 380.95 8.25003 380.68 8.33003C380.353 8.40863 380.017 8.44558 379.68 8.44001C378.794 8.36245 377.907 8.59196 377.17 9.09004C376.672 9.50234 376.342 10.0817 376.24 10.72C376.121 11.4013 376.044 12.0893 376.01 12.78V35.18C376.044 35.8707 376.121 36.5587 376.24 37.24C376.339 37.8792 376.67 38.4595 377.17 38.87C377.905 39.3727 378.793 39.6026 379.68 39.52C380.017 39.5145 380.353 39.5514 380.68 39.63C380.95 39.71 381.1 40.07 381.14 40.71C381.139 41.0096 381.048 41.302 380.88 41.55C380.802 41.6796 380.69 41.7855 380.556 41.856C380.422 41.9265 380.271 41.959 380.12 41.95C377.71 41.83 375.38 41.78 373.12 41.78C372 41.78 370.89 41.78 369.8 41.78C368.71 41.78 367.61 41.93 366.41 42Z" fill="#5E3023"/>
<path d="M394.5 42.8001C393.322 42.8025 392.166 42.4834 391.156 41.8772C390.147 41.271 389.322 40.4007 388.77 39.3601C388.069 38.0021 387.724 36.4879 387.77 34.9601V18.3701L384.49 18.4801C384.373 18.4864 384.256 18.461 384.152 18.4064C384.048 18.3519 383.961 18.2702 383.9 18.1701C383.767 17.9612 383.697 17.7179 383.7 17.47C383.7 16.72 383.97 16.2801 384.49 16.1701C385.536 16.0537 386.532 15.6645 387.38 15.0415C388.228 14.4184 388.897 13.5833 389.32 12.6201C389.71 11.7501 390.08 10.8101 390.42 9.80006C390.46 9.67074 390.526 9.5509 390.614 9.44776C390.701 9.34463 390.809 9.26037 390.93 9.20008C391.162 9.1068 391.41 9.05925 391.66 9.06007C391.922 9.07 392.179 9.12759 392.42 9.23005C392.548 9.27347 392.658 9.35756 392.734 9.46949C392.81 9.58142 392.847 9.71504 392.84 9.85005L392.45 16.2801L399.05 15.8901C399.178 15.8564 399.314 15.8656 399.437 15.9161C399.56 15.9666 399.663 16.0558 399.73 16.1701C399.846 16.4171 399.904 16.6873 399.9 16.9601C399.897 17.3453 399.829 17.7272 399.7 18.0901C399.56 18.4601 399.41 18.6501 399.22 18.6501L392.9 18.4801V35.6301C392.884 36.6723 393.125 37.7024 393.6 38.6301C393.847 39.0843 394.223 39.4556 394.68 39.6975C395.137 39.9394 395.655 40.0412 396.17 39.9901C396.642 39.9857 397.114 39.9456 397.58 39.8701C398.164 39.7823 398.733 39.614 399.27 39.3701C399.417 39.2891 399.571 39.2221 399.73 39.1701C399.873 39.1114 400.026 39.0809 400.18 39.0801C400.315 39.0748 400.448 39.1065 400.567 39.1717C400.685 39.2369 400.783 39.3332 400.85 39.4501C401.001 39.6938 401.135 39.9477 401.25 40.2101C401.311 40.3529 401.316 40.5133 401.264 40.6596C401.212 40.8058 401.107 40.9273 400.97 41.0001C399.989 41.6712 398.9 42.1684 397.75 42.47C396.682 42.6986 395.592 42.8093 394.5 42.8001Z" fill="#5E3023"/>
<path d="M409.9 42.5101C409.431 42.5232 408.964 42.4414 408.528 42.2695C408.091 42.0977 407.694 41.8393 407.36 41.5101C407.024 41.1746 406.762 40.7728 406.589 40.3303C406.417 39.8879 406.339 39.4144 406.36 38.9401C406.348 38.4803 406.431 38.0229 406.603 37.5963C406.775 37.1697 407.032 36.783 407.36 36.4601C408.059 35.8041 408.981 35.439 409.94 35.439C410.899 35.439 411.821 35.8041 412.52 36.4601C412.859 36.7772 413.127 37.1617 413.308 37.5888C413.489 38.016 413.578 38.4763 413.57 38.9401C413.587 39.4184 413.502 39.8948 413.321 40.3378C413.14 40.7809 412.867 41.1804 412.52 41.5101C412.171 41.8417 411.76 42.1009 411.31 42.2725C410.86 42.4442 410.381 42.5249 409.9 42.5101Z" fill="#5E3023"/>
<path d="M432.18 42.0001C432.033 42.0116 431.885 41.9799 431.755 41.9089C431.626 41.8378 431.52 41.7305 431.45 41.6001C431.3 41.3455 431.221 41.0556 431.22 40.7601C431.26 40.0934 431.41 39.7334 431.67 39.6801C431.997 39.5997 432.333 39.5627 432.67 39.5701C433.567 39.6599 434.467 39.4296 435.21 38.9201C435.696 38.4983 436.024 37.9233 436.14 37.2901C436.273 36.6115 436.34 35.9216 436.34 35.2301V12.8301C436.34 12.1386 436.273 11.4486 436.14 10.7701C436.022 10.1376 435.695 9.56336 435.21 9.14009C434.464 8.63526 433.566 8.40544 432.67 8.49007C432.333 8.49741 431.997 8.46044 431.67 8.38008C431.41 8.30008 431.26 7.94006 431.22 7.30006C431.221 7.00458 431.3 6.71464 431.45 6.4601C431.522 6.33129 431.628 6.22534 431.757 6.15455C431.886 6.08377 432.033 6.05101 432.18 6.06007L435.59 6.18007C436.67 6.18007 437.77 6.18007 438.89 6.18007H455.2C455.553 6.17873 455.899 6.27571 456.2 6.4601C456.354 6.59119 456.473 6.75851 456.546 6.94704C456.62 7.13556 456.645 7.33933 456.62 7.54005L456.79 15.4301C456.793 15.6078 456.745 15.7827 456.651 15.9335C456.557 16.0844 456.421 16.2048 456.26 16.2801C455.955 16.4541 455.611 16.5503 455.26 16.5601C454.86 16.5641 454.463 16.4787 454.1 16.3101C453.939 16.2445 453.796 16.1413 453.683 16.009C453.57 15.8768 453.49 15.7194 453.45 15.5501C453.298 14.1611 453.006 12.7909 452.58 11.4601C452.317 10.5531 451.762 9.75848 451 9.20009C450.089 8.67591 449.051 8.41294 448 8.44008H441.85V23.1101H452C452.142 23.1212 452.279 23.1683 452.398 23.247C452.517 23.3258 452.614 23.4335 452.68 23.5601C452.827 23.8154 452.903 24.1055 452.9 24.4001C452.901 24.6693 452.825 24.9331 452.68 25.16C452.612 25.2785 452.512 25.3758 452.392 25.4411C452.272 25.5064 452.136 25.5372 452 25.5301H441.9V35.1801C441.939 35.8704 442.016 36.5581 442.13 37.2401C442.229 37.8793 442.56 38.4596 443.06 38.8701C443.795 39.3727 444.683 39.6027 445.57 39.5201C445.907 39.5114 446.243 39.5484 446.57 39.6301C446.83 39.7101 446.98 40.0701 447.02 40.7101C447.019 41.0056 446.94 41.2955 446.79 41.5501C446.712 41.6845 446.597 41.7938 446.459 41.8647C446.32 41.9356 446.165 41.9653 446.01 41.9501C443.6 41.8301 441.27 41.7801 439.01 41.7801C437.883 41.7801 436.773 41.7801 435.68 41.7801C434.53 41.8801 433.38 41.9301 432.18 42.0001Z" fill="#5E3023"/>
<path d="M471.67 42.5101C469.106 42.5972 466.57 41.952 464.36 40.6501C462.428 39.4537 460.89 37.7147 459.94 35.6501C458.949 33.5321 458.446 31.2184 458.47 28.8801C458.469 27.2343 458.764 25.6016 459.34 24.0601C459.928 22.4983 460.777 21.0477 461.85 19.7701C462.934 18.478 464.28 17.4314 465.8 16.7001C467.439 15.9218 469.236 15.535 471.05 15.5701C474.51 15.5701 477.113 16.4634 478.86 18.2501C480.629 20.0893 481.691 22.494 481.86 25.04C481.931 25.5325 481.866 26.035 481.672 26.4933C481.478 26.9515 481.163 27.3481 480.76 27.6401C479.879 28.0865 478.897 28.3 477.91 28.2601H464.22C464.187 30.2445 464.495 32.2198 465.13 34.1C465.659 35.7213 466.658 37.1486 468 38.2001C469.508 39.2605 471.329 39.7851 473.17 39.6901C474.59 39.7365 475.994 39.3905 477.23 38.6901C478.584 37.7761 479.704 36.5566 480.5 35.1301C480.8 34.7601 481.21 34.7401 481.74 35.1301C481.881 35.197 482.006 35.2946 482.104 35.4156C482.203 35.5367 482.273 35.6784 482.31 35.8301C482.35 35.9674 482.36 36.1116 482.339 36.253C482.318 36.3945 482.268 36.5299 482.19 36.6501C481.09 38.4292 479.582 39.9203 477.79 41.0001C475.927 42.0538 473.81 42.5761 471.67 42.5101ZM464.22 26.16H473.42C474.181 26.1957 474.935 26.008 475.59 25.6201C475.875 25.4106 476.104 25.1339 476.255 24.8146C476.407 24.4952 476.478 24.1432 476.46 23.79C476.484 22.2473 476.022 20.7361 475.14 19.47C474.674 18.8349 474.054 18.3285 473.339 17.9979C472.623 17.6674 471.836 17.5236 471.05 17.5801C470.144 17.5691 469.248 17.7673 468.431 18.1593C467.614 18.5513 466.898 19.1265 466.34 19.8401C464.966 21.6606 464.221 23.879 464.22 26.16Z" fill="#5E3023"/>
<path d="M500 42.5101C497.436 42.5972 494.9 41.952 492.69 40.6501C490.757 39.4511 489.217 37.7131 488.26 35.6501C487.277 33.5298 486.778 31.2171 486.8 28.8801C486.799 27.2343 487.094 25.6016 487.67 24.0601C488.254 22.4964 489.103 21.0452 490.18 19.7701C491.278 18.4723 492.642 17.4254 494.18 16.7001C495.819 15.9218 497.616 15.535 499.43 15.5701C502.89 15.5701 505.493 16.4634 507.24 18.2501C509.005 20.0917 510.067 22.495 510.24 25.04C510.311 25.5325 510.246 26.035 510.052 26.4933C509.858 26.9515 509.543 27.3481 509.14 27.6401C508.259 28.0865 507.277 28.3 506.29 28.2601H492.54C492.509 30.2435 492.813 32.218 493.44 34.1C493.971 35.7036 494.962 37.1156 496.29 38.16C497.795 39.219 499.612 39.7436 501.45 39.6501C502.873 39.6963 504.281 39.3504 505.52 38.6501C506.869 37.7306 507.988 36.5123 508.79 35.0901C509.09 34.7201 509.5 34.7001 510.03 35.0901C510.171 35.1551 510.296 35.2523 510.393 35.3738C510.49 35.4953 510.558 35.6378 510.59 35.79C510.631 35.9267 510.643 36.0705 510.624 36.212C510.605 36.3534 510.556 36.4891 510.48 36.61C509.377 38.387 507.869 39.8776 506.08 40.9601C504.232 42.0207 502.13 42.5566 500 42.5101ZM492.55 26.16H501.75C502.511 26.1957 503.265 26.008 503.92 25.6201C504.205 25.4106 504.434 25.1339 504.585 24.8146C504.737 24.4952 504.807 24.1432 504.79 23.79C504.814 22.2473 504.352 20.7361 503.47 19.47C503.004 18.8349 502.384 18.3285 501.669 17.9979C500.953 17.6674 500.166 17.5236 499.38 17.5801C498.474 17.5691 497.578 17.7673 496.761 18.1593C495.944 18.5513 495.228 19.1265 494.67 19.8401C493.292 21.6593 492.544 23.8779 492.54 26.16H492.55Z" fill="#5E3023"/>
<path d="M514 42C513.869 41.9987 513.741 41.964 513.627 41.8993C513.513 41.8345 513.418 41.7419 513.35 41.63C513.189 41.4093 513.101 41.1433 513.1 40.87C513.1 40.31 513.27 39.99 513.52 39.94C513.806 39.8756 514.098 39.8454 514.39 39.85C515.153 39.9353 515.922 39.7475 516.56 39.32C516.968 38.9486 517.212 38.431 517.24 37.88C517.3 37.28 517.33 36.66 517.33 36.02V8.50002C517.333 7.86889 517.302 7.23805 517.24 6.61C517.21 6.07472 516.977 5.57093 516.59 5.20003C515.966 4.767 515.205 4.5751 514.45 4.65999C514.134 4.66707 513.82 4.61976 513.52 4.52004C513.24 4.43337 513.1 4.10004 513.1 3.52004C513.099 3.27127 513.19 3.03094 513.357 2.84603C513.523 2.66112 513.753 2.54491 514 2.52004C515.348 2.33572 516.684 2.07189 518 1.73C518.92 1.47 519.62 1.24001 520.11 1.05001C520.527 0.880054 520.964 0.765771 521.41 0.71004C521.676 0.66923 521.947 0.729903 522.17 0.880023C522.29 0.996543 522.38 1.13972 522.434 1.29787C522.488 1.45601 522.504 1.62462 522.48 1.79V36C522.48 36.64 522.48 37.26 522.56 37.86C522.597 38.4086 522.84 38.9229 523.24 39.3C523.88 39.7243 524.647 39.9118 525.41 39.83C525.706 39.8255 526.001 39.8557 526.29 39.92C526.53 39.92 526.67 40.29 526.71 40.85C526.71 41.1191 526.634 41.3826 526.49 41.61C526.42 41.7262 526.319 41.8217 526.2 41.8867C526.081 41.9517 525.946 41.9839 525.81 41.98C524.72 41.9 523.71 41.85 522.81 41.84C521.91 41.83 520.92 41.84 519.9 41.84C518.88 41.84 517.9 41.84 517.03 41.84C516.16 41.84 515.07 41.93 514 42Z" fill="#5E3023"/>
<path d="M543.88 42C543.724 42.0159 543.566 41.9867 543.426 41.9158C543.286 41.8449 543.169 41.7353 543.09 41.6C542.94 41.3454 542.86 41.0555 542.86 40.76C542.9 40.0934 543.05 39.7333 543.31 39.68C543.637 39.5983 543.973 39.5614 544.31 39.57C545.207 39.6598 546.106 39.4295 546.85 38.92C547.336 38.4983 547.664 37.9233 547.78 37.29C547.915 36.6107 547.999 35.922 548.03 35.23V12.83C547.999 12.138 547.915 11.4494 547.78 10.77C547.662 10.1376 547.334 9.56329 546.85 9.14003C546.104 8.6352 545.206 8.40538 544.31 8.49C543.973 8.49866 543.637 8.46167 543.31 8.38002C543.05 8.30002 542.9 7.94 542.86 7.3C542.86 7.00452 542.94 6.71457 543.09 6.46003C543.171 6.32641 543.288 6.21815 543.428 6.14747C543.567 6.0768 543.724 6.0465 543.88 6.06001L547.29 6.18C548.36 6.18 549.46 6.18 550.59 6.18C552.88 6.18 555.23 6.18002 557.59 6.01002C557.741 6.00321 557.891 6.03665 558.024 6.10695C558.158 6.17725 558.27 6.28184 558.35 6.40999C558.518 6.65799 558.608 6.95042 558.61 7.25001C558.61 7.89001 558.42 8.25003 558.15 8.33003C557.823 8.40863 557.487 8.44558 557.15 8.44001C556.263 8.36245 555.377 8.59196 554.64 9.09004C554.142 9.50234 553.812 10.0817 553.71 10.72C553.591 11.4013 553.514 12.0893 553.48 12.78V35.18C553.514 35.8707 553.591 36.5587 553.71 37.24C553.809 37.8792 554.14 38.4595 554.64 38.87C555.375 39.3727 556.263 39.6026 557.15 39.52C557.487 39.5145 557.823 39.5514 558.15 39.63C558.42 39.71 558.57 40.07 558.61 40.71C558.608 41.0096 558.518 41.302 558.35 41.55C558.272 41.6796 558.16 41.7855 558.026 41.856C557.892 41.9265 557.741 41.959 557.59 41.95C555.18 41.83 552.85 41.78 550.59 41.78C549.457 41.78 548.347 41.78 547.26 41.78C546.23 41.88 545.08 41.93 543.88 42Z" fill="#5E3023"/>
<path d="M572 42.8001C570.822 42.8025 569.666 42.4834 568.657 41.8772C567.647 41.271 566.822 40.4007 566.27 39.3601C565.569 38.0021 565.224 36.4879 565.27 34.9601V18.3701L562 18.4801C561.881 18.4883 561.762 18.4638 561.657 18.4091C561.551 18.3545 561.462 18.2717 561.4 18.1701C561.27 17.9602 561.204 17.7169 561.21 17.47C561.21 16.72 561.47 16.2801 562 16.1701C563.044 16.0521 564.039 15.6621 564.884 15.0391C565.73 14.4161 566.398 13.582 566.82 12.6201C567.21 11.7501 567.58 10.8101 567.92 9.80006C567.96 9.67074 568.026 9.5509 568.114 9.44776C568.201 9.34463 568.309 9.26037 568.43 9.20008C568.662 9.1068 568.91 9.05925 569.16 9.06007C569.422 9.06886 569.68 9.1265 569.92 9.23005C570.048 9.27347 570.158 9.35756 570.234 9.46949C570.31 9.58142 570.347 9.71504 570.34 9.85005L569.95 16.2801L576.55 15.8901C576.678 15.8564 576.814 15.8656 576.937 15.9161C577.06 15.9666 577.163 16.0558 577.23 16.1701C577.346 16.4171 577.404 16.6873 577.4 16.9601C577.397 17.3453 577.329 17.7272 577.2 18.0901C577.07 18.4601 576.91 18.6501 576.72 18.6501L570.4 18.4801V35.6301C570.383 36.6736 570.627 37.7049 571.11 38.6301C571.355 39.0844 571.728 39.4561 572.184 39.6981C572.64 39.9402 573.157 40.0418 573.67 39.9901C574.142 39.9857 574.614 39.9456 575.08 39.8701C575.664 39.7823 576.233 39.614 576.77 39.3701C576.919 39.2927 577.072 39.2259 577.23 39.1701C577.373 39.1114 577.526 39.0809 577.68 39.0801C577.815 39.0748 577.949 39.1065 578.067 39.1717C578.185 39.2369 578.283 39.3332 578.35 39.4501C578.501 39.6938 578.635 39.9477 578.75 40.2101C578.811 40.3529 578.816 40.5133 578.764 40.6596C578.712 40.8058 578.607 40.9273 578.47 41.0001C577.489 41.6712 576.4 42.1684 575.25 42.47C574.182 42.6986 573.092 42.8093 572 42.8001Z" fill="#5E3023"/>
<path d="M587.37 42.5101C586.898 42.5299 586.428 42.4516 585.988 42.2802C585.549 42.1087 585.149 41.848 584.816 41.5143C584.482 41.1806 584.221 40.7813 584.05 40.3417C583.878 39.902 583.8 39.4316 583.82 38.9601C583.81 38.5006 583.894 38.0439 584.066 37.6176C584.238 37.1914 584.494 36.8044 584.82 36.48C585.519 35.8241 586.441 35.459 587.4 35.459C588.358 35.459 589.281 35.8241 589.98 36.48C590.309 36.8015 590.568 37.188 590.741 37.6149C590.913 38.0419 590.994 38.5 590.98 38.9601C591.003 39.4347 590.926 39.9089 590.754 40.3517C590.582 40.7945 590.318 41.1961 589.98 41.5301C589.631 41.8569 589.22 42.1117 588.772 42.2798C588.325 42.448 587.848 42.5262 587.37 42.5101Z" fill="#5E3023"/>
</svg>
